<svg xmlns="http://www.w3.org/2000/svg" viewBox="0 0 512 512" style="enable-background:new 0 0 512 512" xml:space="preserve"><path style="fill:#ff5064" d="M223.936 504.5H31.549c-13.281 0-24.048-10.767-24.048-24.048V288.065c0-13.282 10.767-24.048 24.048-24.048h192.387c13.282 0 24.048 10.767 24.048 24.048v192.387c0 13.281-10.767 24.048-24.048 24.048z"/><path style="fill:#d23c53" d="M31.549 344.177v-80.161c-13.282 0-24.048 10.767-24.048 24.048v192.387c0 13.282 10.767 24.048 24.048 24.048h192.387c13.282 0 24.048-10.767 24.048-24.048h-80.161c-75.262.001-136.274-61.011-136.274-136.274z"/><path style="fill:#e4eaf8" d="M143.775 384.258c-.124 8.854-7.402 16.032-16.256 16.032s-15.932-7.178-15.808-16.032 7.402-16.032 16.256-16.032 15.931 7.178 15.808 16.032zM87.662 328.145c-.124 8.854-7.402 16.032-16.256 16.032S55.474 337 55.598 328.145 63 312.113 71.854 312.113s15.932 7.178 15.808 16.032zM199.887 328.145c-.124 8.854-7.402 16.032-16.256 16.032s-15.932-7.178-15.808-16.032 7.402-16.032 16.256-16.032 15.933 7.178 15.808 16.032zM87.662 440.371c-.124 8.854-7.402 16.032-16.256 16.032s-15.932-7.178-15.808-16.032S63 424.339 71.854 424.339s15.932 7.178 15.808 16.032zM199.887 440.371c-.124 8.854-7.402 16.032-16.256 16.032s-15.932-7.178-15.808-16.032 7.402-16.032 16.256-16.032 15.933 7.178 15.808 16.032z"/><path style="fill:#ff5064" d="M480.452 247.984H288.065c-13.282 0-24.048-10.767-24.048-24.048V31.548c0-13.282 10.767-24.048 24.048-24.048h192.387c13.282 0 24.048 10.767 24.048 24.048v192.387c0 13.282-10.767 24.049-24.048 24.049z"/><path style="fill:#d23c53" d="M288.065 87.661V7.5c-13.282 0-24.048 10.767-24.048 24.048v192.387c0 13.282 10.767 24.048 24.048 24.048h192.387c13.282 0 24.048-10.767 24.048-24.048h-80.161c-75.262 0-136.274-61.012-136.274-136.274z"/><path style="fill:#e4eaf8" d="M400.29 183.855c-.124 8.854-7.402 16.032-16.256 16.032s-15.932-7.178-15.808-16.032 7.402-16.032 16.256-16.032 15.932 7.177 15.808 16.032zM400.29 71.629c-.124 8.854-7.402 16.032-16.256 16.032s-15.932-7.178-15.808-16.032 7.402-16.032 16.256-16.032 15.932 7.178 15.808 16.032z"/><path d="M223.937 256.516H31.549c-17.396 0-31.548 14.152-31.548 31.548v192.387C.001 497.848 14.153 512 31.549 512h192.387c17.396 0 31.548-14.152 31.548-31.549V288.064c0-17.396-14.151-31.548-31.547-31.548zm16.547 223.935c0 9.125-7.423 16.549-16.548 16.549H31.549c-9.125 0-16.548-7.424-16.548-16.549V288.064c0-9.125 7.423-16.548 16.548-16.548h192.387c9.125 0 16.548 7.423 16.548 16.548v192.387z"/><path d="M71.63 304.613c-12.976 0-23.532 10.557-23.532 23.532s10.557 23.532 23.532 23.532 23.532-10.557 23.532-23.532-10.558-23.532-23.532-23.532zm0 32.064c-4.705 0-8.532-3.828-8.532-8.532s3.828-8.532 8.532-8.532 8.532 3.828 8.532 8.532-3.828 8.532-8.532 8.532zM183.855 351.677c8.37 0 16.177-4.503 20.374-11.751a7.5 7.5 0 0 0-2.732-10.249 7.5 7.5 0 0 0-10.249 2.732 8.57 8.57 0 0 1-7.394 4.268c-4.705 0-8.532-3.828-8.532-8.532s3.828-8.532 8.532-8.532a7.5 7.5 0 0 0 0-15c-12.976 0-23.532 10.557-23.532 23.532s10.558 23.532 23.533 23.532zM89.273 441.896a7.5 7.5 0 0 0-10.248 2.736 8.57 8.57 0 0 1-7.396 4.271c-4.705 0-8.532-3.828-8.532-8.532s3.828-8.532 8.532-8.532a7.5 7.5 0 0 0 0-15c-12.976 0-23.532 10.557-23.532 23.532s10.557 23.532 23.532 23.532c8.374 0 16.182-4.506 20.379-11.76a7.499 7.499 0 0 0-2.735-10.247zM127.743 360.726c-12.976 0-23.532 10.557-23.532 23.533s10.557 23.532 23.532 23.532c12.976 0 23.533-10.557 23.533-23.532-.001-12.977-10.557-23.533-23.533-23.533zm0 32.065c-4.705 0-8.532-3.828-8.532-8.532 0-4.705 3.828-8.533 8.532-8.533 4.705 0 8.533 3.828 8.533 8.533-.001 4.704-3.828 8.532-8.533 8.532zM183.855 416.839c-12.976 0-23.532 10.557-23.532 23.532s10.557 23.532 23.532 23.532 23.532-10.557 23.532-23.532-10.556-23.532-23.532-23.532zm0 32.064c-4.705 0-8.532-3.828-8.532-8.532s3.828-8.532 8.532-8.532 8.532 3.828 8.532 8.532-3.826 8.532-8.532 8.532zM480.452 0H288.064c-17.396 0-31.548 14.152-31.548 31.548v192.387c0 17.396 14.152 31.548 31.548 31.548h192.387c17.396 0 31.548-14.152 31.548-31.548V31.548C512 14.152 497.848 0 480.452 0zM497 223.936c0 9.125-7.423 16.548-16.548 16.548H288.064c-9.125 0-16.548-7.423-16.548-16.548V31.548c0-9.125 7.423-16.548 16.548-16.548h192.387C489.577 15 497 22.423 497 31.548v192.388z"/><path d="M384.258 48.097c-12.976 0-23.533 10.557-23.533 23.532s10.557 23.532 23.533 23.532 23.532-10.557 23.532-23.532-10.556-23.532-23.532-23.532zm0 32.064c-4.705 0-8.533-3.828-8.533-8.532s3.828-8.532 8.533-8.532 8.532 3.828 8.532 8.532-3.826 8.532-8.532 8.532zM401.9 185.379a7.502 7.502 0 0 0-10.248 2.737 8.571 8.571 0 0 1-7.395 4.271c-4.705 0-8.533-3.828-8.533-8.532s3.828-8.532 8.533-8.532a7.5 7.5 0 0 0 0-15c-12.976 0-23.533 10.557-23.533 23.532s10.557 23.532 23.533 23.532c8.374 0 16.183-4.506 20.379-11.76a7.5 7.5 0 0 0-2.736-10.248z"/></svg>
