<svg width="24" height="38" viewBox="0 0 24 38" fill="none" xmlns="http://www.w3.org/2000/svg">
<path d="M12.127 1.11504C15.1792 1.03517 18.8805 2.44213 21.1543 5.36015C23.3878 8.22681 24.1837 12.4683 21.8047 17.9939L21.5645 18.533C20.7139 20.3778 19.7082 21.5849 18.9355 22.6082C18.2077 23.5723 17.7037 24.352 17.5732 25.3924L17.5518 25.6043C17.4551 26.9087 17.3326 27.9641 17.1387 28.701C17.0425 29.0662 16.9179 29.3972 16.7412 29.6463C16.556 29.9073 16.2758 30.1236 15.8945 30.1238L15.8936 30.1238L8.22753 30.1111L8.22753 30.1238C8.18949 30.1238 8.15113 30.1215 8.11328 30.117L7.99902 30.0955C7.6643 30.0121 7.44221 29.7654 7.29589 29.5135C7.14848 29.2596 7.03941 28.9367 6.95214 28.575C6.82066 28.0299 6.72267 27.3257 6.64355 26.4871L6.57031 25.6043C6.48512 24.4552 5.96295 23.6367 5.18652 22.6082C4.46214 21.6487 3.53387 20.5275 2.71972 18.8709L2.55859 18.533C-0.112129 12.7403 0.696832 8.3153 3.03711 5.35722C5.34377 2.44189 9.07557 1.03548 12.127 1.11504Z" fill="#FFCC02"/>
<path d="M12.127 1.11504L12.1139 1.61487L12.127 1.61521L12.14 1.61486L12.127 1.11504ZM21.1543 5.36015L21.5487 5.05285L21.5487 5.05283L21.1543 5.36015ZM21.8047 17.9939L22.2614 18.1975L22.2639 18.1917L21.8047 17.9939ZM21.5645 18.533L22.0186 18.7424L22.0212 18.7365L21.5645 18.533ZM18.9355 22.6082L18.5365 22.3069L18.5365 22.3069L18.9355 22.6082ZM17.5732 25.3924L17.077 25.3302L17.0758 25.3419L17.5732 25.3924ZM17.5518 25.6043L17.0541 25.5538L17.0531 25.5674L17.5518 25.6043ZM17.1387 28.701L17.6222 28.8282L17.6222 28.8282L17.1387 28.701ZM16.7412 29.6463L17.1489 29.9357L17.1491 29.9355L16.7412 29.6463ZM15.8945 30.1238L15.8945 30.6238L15.8948 30.6238L15.8945 30.1238ZM15.8936 30.1238L15.8927 30.6238L15.8936 30.6238L15.8936 30.1238ZM8.22753 30.1111L8.22836 29.6111L7.72753 29.6103L7.72753 30.1111L8.22753 30.1111ZM8.22753 30.1238L8.22743 30.6238L8.72753 30.6239L8.72753 30.1238L8.22753 30.1238ZM8.11328 30.117L8.02088 30.6084L8.03716 30.6114L8.0536 30.6134L8.11328 30.117ZM7.99902 30.0955L7.87809 30.5807L7.89226 30.5842L7.90662 30.5869L7.99902 30.0955ZM7.29589 29.5135L6.86351 29.7646L6.86354 29.7646L7.29589 29.5135ZM6.95214 28.575L6.46608 28.6922L6.46609 28.6923L6.95214 28.575ZM6.64355 26.4871L6.14523 26.5284L6.14576 26.5341L6.64355 26.4871ZM6.57031 25.6043L6.07166 25.6413L6.07202 25.6456L6.57031 25.6043ZM5.18652 22.6082L5.58557 22.3069L5.58557 22.3069L5.18652 22.6082ZM2.71972 18.8709L2.26838 19.0861L2.27099 19.0914L2.71972 18.8709ZM2.55859 18.533L2.10449 18.7424L2.10728 18.7482L2.55859 18.533ZM3.03711 5.35722L2.645 5.04698L2.64499 5.04699L3.03711 5.35722ZM12.127 1.11504L12.14 1.61486C15.0516 1.53868 18.5942 2.88816 20.7599 5.66748L21.1543 5.36015L21.5487 5.05283C19.1668 1.9961 15.3069 0.531659 12.1139 0.615206L12.127 1.11504ZM21.1543 5.36015L20.7599 5.66746C22.8619 8.36536 23.6657 12.407 21.3454 17.7962L21.8047 17.9939L22.2639 18.1917C24.7017 12.5295 23.9137 8.08826 21.5487 5.05285L21.1543 5.36015ZM21.8047 17.9939L21.348 17.7904L21.1077 18.3295L21.5645 18.533L22.0212 18.7365L22.2614 18.1975L21.8047 17.9939ZM21.5645 18.533L21.1104 18.3237C20.2874 20.1087 19.3206 21.2683 18.5365 22.3069L18.9355 22.6082L19.3346 22.9095C20.0957 21.9014 21.1404 20.6469 22.0185 18.7424L21.5645 18.533ZM18.9355 22.6082L18.5365 22.3069C17.8034 23.278 17.2252 24.1489 17.0771 25.3302L17.5732 25.3924L18.0694 25.4546C18.1821 24.5552 18.612 23.8666 19.3346 22.9095L18.9355 22.6082ZM17.5732 25.3924L17.0758 25.3419L17.0543 25.5539L17.5518 25.6043L18.0492 25.6547L18.0707 25.4428L17.5732 25.3924ZM17.5518 25.6043L17.0531 25.5674C16.9565 26.8712 16.8362 27.8857 16.6551 28.5737L17.1387 28.701L17.6222 28.8282C17.829 28.0425 17.9537 26.9461 18.0504 25.6412L17.5518 25.6043ZM17.1387 28.701L16.6551 28.5737C16.5648 28.9171 16.4587 29.1803 16.3334 29.3571L16.7412 29.6463L17.1491 29.9355C17.377 29.6141 17.5203 29.2153 17.6222 28.8282L17.1387 28.701ZM16.7412 29.6463L16.3335 29.3569C16.2071 29.535 16.0616 29.6237 15.8943 29.6238L15.8945 30.1238L15.8948 30.6238C16.4901 30.6235 16.9048 30.2796 17.1489 29.9357L16.7412 29.6463ZM15.8945 30.1238L15.8945 29.6238L15.8936 29.6238L15.8936 30.1238L15.8936 30.6238L15.8945 30.6238L15.8945 30.1238ZM15.8936 30.1238L15.8944 29.6238L8.22836 29.6111L8.22753 30.1111L8.22671 30.6111L15.8927 30.6238L15.8936 30.1238ZM8.22753 30.1111L7.72753 30.1111L7.72753 30.1238L8.22753 30.1238L8.72753 30.1238L8.72753 30.1111L8.22753 30.1111ZM8.22753 30.1238L8.22764 29.6238C8.20931 29.6238 8.19085 29.6227 8.17295 29.6206L8.11328 30.117L8.0536 30.6134C8.11141 30.6204 8.16966 30.6238 8.22743 30.6238L8.22753 30.1238ZM8.11328 30.117L8.20567 29.6256L8.09142 29.6041L7.99902 30.0955L7.90662 30.5869L8.02088 30.6084L8.11328 30.117ZM7.99902 30.0955L8.11995 29.6103C7.97061 29.5731 7.84108 29.4566 7.72825 29.2623L7.29589 29.5135L6.86354 29.7646C7.04335 30.0742 7.35799 30.451 7.87809 30.5807L7.99902 30.0955ZM7.29589 29.5135L7.72828 29.2624C7.616 29.069 7.52068 28.7996 7.4382 28.4577L6.95214 28.575L6.46609 28.6923C6.55815 29.0738 6.68097 29.4502 6.86351 29.7646L7.29589 29.5135ZM6.95214 28.575L7.43821 28.4578C7.31508 27.9473 7.21972 27.2709 7.14134 26.4401L6.64355 26.4871L6.14576 26.5341C6.22563 27.3805 6.32624 28.1125 6.46608 28.6922L6.95214 28.575ZM6.64355 26.4871L7.14184 26.4458L7.0686 25.563L6.57031 25.6043L6.07202 25.6456L6.14526 26.5284L6.64355 26.4871ZM6.57031 25.6043L7.06894 25.5673C6.97229 24.2636 6.36929 23.3451 5.58557 22.3069L5.18652 22.6082L4.78747 22.9095C5.5566 23.9283 5.99795 24.6468 6.07168 25.6413L6.57031 25.6043ZM5.18652 22.6082L5.58557 22.3069C4.84964 21.3322 3.95671 20.2543 3.16846 18.6504L2.71972 18.8709L2.27099 19.0914C3.11103 20.8007 4.07464 21.9653 4.78748 22.9095L5.18652 22.6082ZM2.71972 18.8709L3.17103 18.6557L3.0099 18.3178L2.55859 18.533L2.10728 18.7482L2.26841 19.0861L2.71972 18.8709ZM2.55859 18.533L3.01265 18.3237C0.405292 12.6684 1.22713 8.45087 3.42923 5.66745L3.03711 5.35722L2.64499 5.04699C0.166534 8.17972 -0.62955 12.8123 2.10453 18.7423L2.55859 18.533ZM3.03711 5.35722L3.42922 5.66746C5.62794 2.88856 9.20259 1.53896 12.1139 1.61487L12.127 1.11504L12.14 0.615205C8.94855 0.532 5.0596 1.99523 2.645 5.04698L3.03711 5.35722Z" fill="white"/>
<path d="M6.11995 7.79285C4.92874 9.3382 3.39626 13.6652 6.79604 18.6103" stroke="white" stroke-width="2" stroke-linecap="round"/>
<path d="M13.6534 35.5126C13.6534 36.4727 12.7886 37.2509 11.7218 37.2509C10.7216 37.2509 9.89882 36.567 9.79993 35.6903L9.79016 35.5126L13.6534 35.5126Z" fill="white"/>
<rect x="7.85843" y="33.0015" width="8.49946" height="1.35219" rx="0.676093" fill="white"/>
<rect x="7.85843" y="30.8766" width="8.49946" height="1.35219" rx="0.676093" fill="white"/>
</svg>
