<svg width="155" height="126" viewBox="0 0 155 126" fill="none" xmlns="http://www.w3.org/2000/svg">
<path d="M99.7385 61.9218C100.239 48.7233 106.9 20.8603 130.5 14.5367C137.396 12.689 142.41 12.9198 146 14.4166C141.6 10.762 131.167 11.3072 126.5 12.0366C104.9 16.4366 95.5 40.5366 93.5 52.0366L12 40.5366C12 29.2033 20.9 6.83662 58.5 4.03662L53.5 1.03668C37.5 0.37001 4.2 8.53662 1 46.5366L79.1475 58.8176L99.7385 61.9218Z" fill="#E79A00"/>
<path d="M12 40.5366L93.5 52.0366C95.5 40.5366 104.9 16.4366 126.5 12.0366L58.5 4.03662C20.9 6.83662 12 29.2033 12 40.5366Z" fill="#914023"/>
<path fill-rule="evenodd" clip-rule="evenodd" d="M99.7385 61.9218L153.5 36.0367C155.034 29.099 154.697 18.0428 146 14.4166C142.41 12.9198 137.396 12.689 130.5 14.5367C106.9 20.8603 100.239 48.7233 99.7385 61.9218ZM110 52.0366C108 36.0367 139.5 -1.96343 146 34.0366L110 52.0366Z" fill="#E79A00"/>
<path d="M1 46.5366L3 53.0366L5.5 53.4725L13.5 54.8674L101 70.0366L99.7385 61.9218L79.1475 58.8176L1 46.5366Z" fill="#E79A00"/>
<path d="M133 93.7767L137 91.5367L147.5 46.0961L140.5 49.7L133 93.7767Z" fill="#E79A00"/>
<path d="M101 70.0366L97.5 114.037L104 110.017L107.798 66.5366L101 70.0366Z" fill="#E79A00"/>
<path d="M101 70.0366L93.5 68.7364L91.5 112.72L97.5 114.037L101 70.0366Z" fill="#E79A00"/>
<path fill-rule="evenodd" clip-rule="evenodd" d="M93.5 68.7364L13.5 54.8674L20 97.0366L91.5 112.72L93.5 68.7364ZM52 68.0366C44.8 66.4366 44 71.37 44.5 74.0366C43.6667 73.87 41.6 73.8366 40 75.0366C38 76.5366 39.5 77.5366 40 78.5366C40.4 79.3366 43.1667 79.87 44.5 80.0366C44.5 88.8366 49.5 90.7033 52 90.5366C58 91.7366 58.5 86.37 58 83.5366C58.6667 83.87 60.6 84.3366 63 83.5366C65.4 82.7366 64 79.87 63 78.5366L58 77.0366C59 74.7033 59.2 69.6366 52 68.0366Z" fill="#914023"/>
<path d="M110 52.0366C108 36.0367 139.5 -1.96343 146 34.0366L110 52.0366Z" fill="#914023"/>
<path d="M107.798 66.5366L104 110.017L133 93.7767L140.5 49.7L107.798 66.5366Z" fill="#914023"/>
<path d="M99.7385 61.9218L101 70.0366L107.798 66.5366L140.5 49.7L147.5 46.0961L151.5 44.0367L153.5 36.0367L99.7385 61.9218Z" fill="#E79A00"/>
<path fill-rule="evenodd" clip-rule="evenodd" d="M44.5 74.0366C44 71.37 44.8 66.4366 52 68.0366C59.2 69.6366 59 74.7033 58 77.0366L63 78.5366C64 79.87 65.4 82.7366 63 83.5366C60.6 84.3366 58.6667 83.87 58 83.5366C58.5 86.37 58 91.7366 52 90.5366C49.5 90.7033 44.5 88.8366 44.5 80.0366C43.1667 79.87 40.4 79.3366 40 78.5366C39.5 77.5366 38 76.5366 40 75.0366C41.6 73.8366 43.6667 73.87 44.5 74.0366ZM49.5 83.5366V77.0366C47.5 73.4366 50.3333 72.5366 52 72.5366C54.8 74.5366 53.8333 76.37 53 77.0366V83.5366H49.5Z" fill="#E79A00"/>
<path d="M49.5 77.0366V83.5366H53V77.0366C53.8333 76.37 54.8 74.5366 52 72.5366C50.3333 72.5366 47.5 73.4366 49.5 77.0366Z" fill="#010202"/>
<path d="M20 97.0366L13.5 54.8674L5.5 53.4725L15.5 95.5366L20 97.0366Z" fill="#E79A00"/>
<path d="M95.5 117.037L13.5 97.0366L15.5 106.037L95.5 124.537V117.037Z" fill="#E79A00"/>
<path d="M95.5 117.037V124.537L139.5 98.0367V91.5367L96 117.037H95.5Z" fill="#E79A00"/>
<path d="M20 97.0366L15.5 95.5366L13.5 97.0366L95.5 117.037L97.5 114.037L91.5 112.72L20 97.0366Z" fill="#E79A00"/>
<path d="M96 117.037L139.5 91.5367H137L133 93.7767L104 110.017L97.5 114.037L95.5 117.037H96Z" fill="#E79A00"/>
<path d="M1 46.5366L3 53.0366L5.5 53.4725M1 46.5366C4.2 8.53662 37.5 0.37001 53.5 1.03668L58.5 4.03662M1 46.5366L79.1475 58.8176L99.7385 61.9218M101 70.0366L99.7385 61.9218M101 70.0366L13.5 54.8674M101 70.0366L97.5 114.037M101 70.0366L107.798 66.5366M101 70.0366L93.5 68.7364M99.7385 61.9218C100.239 48.7233 106.9 20.8603 130.5 14.5367C137.396 12.689 142.41 12.9198 146 14.4166M99.7385 61.9218L153.5 36.0367M13.5 54.8674L20 97.0366M13.5 54.8674L5.5 53.4725M13.5 54.8674L93.5 68.7364M20 97.0366L15.5 95.5366M20 97.0366L97.5 114.037M20 97.0366L91.5 112.72M5.5 53.4725L15.5 95.5366M15.5 95.5366L13.5 97.0366M13.5 97.0366L95.5 117.037M13.5 97.0366L15.5 106.037L95.5 124.537M95.5 117.037V124.537M95.5 117.037L97.5 114.037M95.5 117.037H96L139.5 91.5367M97.5 114.037L104 110.017M97.5 114.037L91.5 112.72M95.5 124.537L139.5 98.0367V91.5367M139.5 91.5367H137M137 91.5367L133 93.7767M137 91.5367L147.5 46.0961M153.5 36.0367L151.5 44.0367L147.5 46.0961M153.5 36.0367C155.034 29.099 154.697 18.0428 146 14.4166M126.5 12.0366C104.9 16.4366 95.5 40.5366 93.5 52.0366L12 40.5366C12 29.2033 20.9 6.83662 58.5 4.03662M126.5 12.0366C131.167 11.3072 141.6 10.762 146 14.4166M126.5 12.0366L58.5 4.03662M104 110.017L107.798 66.5366M104 110.017L133 93.7767M107.798 66.5366L140.5 49.7M140.5 49.7L133 93.7767M140.5 49.7L147.5 46.0961M93.5 68.7364L91.5 112.72M110 52.0366C108 36.0367 139.5 -1.96343 146 34.0366L110 52.0366ZM44.5 74.0366C44 71.37 44.8 66.4366 52 68.0366C59.2 69.6366 59 74.7033 58 77.0366L63 78.5366C64 79.87 65.4 82.7366 63 83.5366C60.6 84.3366 58.6667 83.87 58 83.5366C58.5 86.37 58 91.7366 52 90.5366C49.5 90.7033 44.5 88.8366 44.5 80.0366C43.1667 79.87 40.4 79.3366 40 78.5366C39.5 77.5366 38 76.5366 40 75.0366C41.6 73.8366 43.6667 73.87 44.5 74.0366ZM49.5 77.0366V83.5366H53V77.0366C53.8333 76.37 54.8 74.5366 52 72.5366C50.3333 72.5366 47.5 73.4366 49.5 77.0366Z" stroke="white"/>
<ellipse cx="22.5" cy="53.0366" rx="2" ry="2.5" fill="#FDDE44"/>
<ellipse cx="22.5" cy="53.0366" rx="2" ry="2.5" fill="#FDDE44"/>
<ellipse cx="22.5" cy="53.0366" rx="2" ry="2.5" fill="#FDDE44"/>
<ellipse cx="97.5" cy="52.0366" rx="2" ry="2.5" fill="#FDDE44"/>
<ellipse cx="101.5" cy="38.0366" rx="2" ry="2.5" fill="#FDDE44"/>
<ellipse cx="107.5" cy="26.0366" rx="2" ry="2.5" fill="#FDDE44"/>
<ellipse cx="119.5" cy="17.0366" rx="2" ry="1.5" fill="#FDDE44"/>
<ellipse cx="12.5" cy="25.0366" rx="2" ry="2.5" fill="#FDDE44"/>
<circle cx="20.5" cy="13.5366" r="2" fill="#FDDE44"/>
<circle cx="31.5" cy="6.53662" r="2" fill="#FDDE44"/>
<ellipse cx="18.5" cy="103.037" rx="2" ry="2.5" fill="#FDDE44"/>
<ellipse cx="29.5" cy="105.037" rx="2" ry="2.5" fill="#FDDE44"/>
<ellipse cx="44.5" cy="109.037" rx="2" ry="2.5" fill="#FDDE44"/>
<ellipse cx="60.5" cy="112.037" rx="2" ry="2.5" fill="#FDDE44"/>
<ellipse cx="90.5" cy="119.037" rx="2" ry="2.5" fill="#FDDE44"/>
<ellipse cx="113.5" cy="110.037" rx="2" ry="2.5" fill="#FDDE44"/>
<ellipse cx="126.5" cy="102.037" rx="2" ry="2.5" fill="#FDDE44"/>
<ellipse cx="135.5" cy="97.0366" rx="2" ry="2.5" fill="#FDDE44"/>
<ellipse cx="101.5" cy="117.037" rx="2" ry="2.5" fill="#FDDE44"/>
<ellipse cx="76.5" cy="116.037" rx="2" ry="2.5" fill="#FDDE44"/>
<ellipse cx="40.5" cy="56.0366" rx="2" ry="2.5" fill="#FDDE44"/>
<ellipse cx="58.5" cy="59.0366" rx="2" ry="2.5" fill="#FDDE44"/>
<ellipse cx="74.5" cy="62.0366" rx="2" ry="2.5" fill="#FDDE44"/>
<ellipse cx="90.5" cy="65.0366" rx="2" ry="2.5" fill="#FDDE44"/>
<ellipse cx="105.5" cy="64.0366" rx="2" ry="2.5" fill="#FDDE44"/>
<ellipse cx="119.5" cy="57.0366" rx="2" ry="2.5" fill="#FDDE44"/>
<ellipse cx="133.5" cy="50.0366" rx="2" ry="2.5" fill="#FDDE44"/>
<ellipse cx="147.5" cy="43.0366" rx="2" ry="2.5" fill="#FDDE44"/>
</svg>
