<?xml version="1.0" encoding="iso-8859-1"?>
<!-- Uploaded to: SVG Repo, www.svgrepo.com, Generator: SVG Repo Mixer Tools -->
<svg height="800px" width="800px" version="1.1" id="Layer_1" xmlns="http://www.w3.org/2000/svg" xmlns:xlink="http://www.w3.org/1999/xlink"
	 viewBox="0 0 512 512" xml:space="preserve">
<path style="fill:#FF9F19;" d="M465.17,378.435H46.83L96.648,69.843C103.408,29.336,138.041,0,179.011,0h153.978
	c40.971,0,75.603,29.336,82.348,69.756L465.17,378.435z"/>
<path style="fill:#F28618;" d="M256,378.435h209.17L415.339,69.756C408.593,29.336,373.96,0,332.989,0H256V378.435z"/>
<g>
	<circle style="fill:#FFE0B2;" cx="189.217" cy="100.174" r="16.696"/>
	<circle style="fill:#FFE0B2;" cx="322.783" cy="100.174" r="16.696"/>
	<circle style="fill:#FFE0B2;" cx="155.826" cy="166.957" r="16.696"/>
	<circle style="fill:#FFE0B2;" cx="222.609" cy="166.957" r="16.696"/>
	<circle style="fill:#FFE0B2;" cx="289.391" cy="166.957" r="16.696"/>
	<circle style="fill:#FFE0B2;" cx="289.391" cy="166.957" r="16.696"/>
	<circle style="fill:#FFE0B2;" cx="356.174" cy="166.957" r="16.696"/>
	<circle style="fill:#FFE0B2;" cx="189.217" cy="233.739" r="16.696"/>
	<circle style="fill:#FFE0B2;" cx="322.783" cy="233.739" r="16.696"/>
	<path style="fill:#FFE0B2;" d="M472.83,425.859c0.78,4.831-0.598,9.76-3.77,13.486c-3.172,3.725-7.819,5.872-12.712,5.872H55.652
		c-4.893,0-9.54-2.147-12.712-5.871c-3.172-3.725-4.55-8.655-3.77-13.486l13.052-80.817h407.556L472.83,425.859z"/>
</g>
<path style="fill:#FECC97;" d="M459.778,345.043H256v100.174h200.348c4.893,0,9.54-2.147,12.712-5.871
	c3.172-3.725,4.55-8.655,3.77-13.486L459.778,345.043z"/>
<path style="fill:#F37B2A;" d="M512,495.304c0,9.22-7.475,16.696-16.696,16.696H16.696C7.475,512,0,504.525,0,495.304v-33.391
	c0-27.618,22.469-50.087,50.087-50.087h411.826c27.618,0,50.087,22.469,50.087,50.087V495.304z"/>
<path style="fill:#E56722;" d="M512,495.304v-33.391c0-27.618-22.469-50.087-50.087-50.087H256V512h239.304
	C504.525,512,512,504.525,512,495.304z"/>
<circle style="fill:#FFE0B2;" cx="256" cy="233.739" r="16.696"/>
<path style="fill:#FECC97;" d="M272.696,233.739c0-9.22-7.475-16.696-16.696-16.696v33.391
	C265.22,250.435,272.696,242.96,272.696,233.739z"/>
<circle style="fill:#FFE0B2;" cx="256" cy="100.174" r="16.696"/>
<path style="fill:#FECC97;" d="M272.696,100.174c0-9.22-7.475-16.696-16.696-16.696v33.391
	C265.22,116.87,272.696,109.394,272.696,100.174z"/>
</svg>
