<svg width="50" height="35" viewBox="0 0 50 35" fill="none" xmlns="http://www.w3.org/2000/svg">
<path d="M10.1253 19.1421C10.1354 19.2836 10.2465 19.5726 10.6103 19.5968" stroke="white"/>
<path d="M11.1257 20.6883C10.8428 20.6479 10.2344 20.4276 10.0646 19.8698" stroke="white"/>
<path d="M10.004 6.65171C9.83222 6.57087 9.64022 6.40918 10.2465 6.40918C10.8529 6.40918 11.247 6.57087 11.3683 6.65171M11.3683 7.62184C11.3683 7.78353 11.3319 8.1069 11.1864 8.1069M9.0642 12.8666C9.18547 13.0182 9.54321 13.2486 10.004 12.9575C10.58 12.5938 11.156 11.6843 11.3683 10.8657" stroke="white"/>
<path d="M4.24388 14.6855L3.94071 15.686L2.33394 14.9887C2.4451 14.9988 2.78262 15.013 3.24343 14.9887C3.70425 14.9645 4.1024 14.7765 4.24388 14.6855Z" stroke="white"/>
<path d="M6.66919 16.0195C6.15381 15.8578 4.95328 15.5829 4.27419 15.7769M6.06286 16.838C5.49695 16.5247 4.28631 15.9528 3.97102 16.1711M5.3959 21.2945C5.83044 21.3754 6.80865 21.4279 7.24521 20.9914" stroke="white"/>
<path d="M44.1707 9.19831C46.1716 10.1988 45.9594 12.1996 46.1716 13.1698C46.1226 13.3126 46.066 13.5074 46.0086 13.7458C45.9864 13.8568 45.9868 14.0328 46.0047 14.2612C46.1232 15.7783 47.01 19.6099 47.1417 22.1131C47.2933 24.9932 48.5363 27.9036 48.7485 28.0552C48.9183 28.1764 48.0108 27.5802 47.5359 27.267C47.2125 26.6707 46.6021 25.3813 46.7476 24.9932C46.9295 24.5081 46.3347 23.2955 46.1716 22.1131C46.0412 21.1673 45.7431 20.6276 45.6104 20.4761C45.5259 20.6143 45.444 20.6725 45.444 20.9308C45.444 21.5978 45.444 23.8412 46.4748 26.0846C47.5055 28.328 47.4449 29.3588 48.4454 29.8439C49.4458 30.3289 48.8698 30.3592 48.4454 31.8751C48.1058 33.0877 46.303 33.209 45.444 33.118C45.0196 33.118 44.2374 32.6451 44.5042 30.7534C44.8377 28.3887 43.4735 25.7814 42.1395 23.4774C40.8056 21.1733 39.2898 21.3552 37.7739 20.4761C36.2581 19.5969 35.288 20.9308 34.5604 20.9308C33.8328 20.9308 28.8306 19.1724 28.0423 19.4756C27.2541 19.7788 28.4061 25.7208 28.8306 27.267C29.255 28.8131 28.8306 30.814 29.255 31.3294C29.6794 31.8447 29.8613 33.118 28.8306 33.5122C27.7998 33.9063 23.8283 33.4515 23.3433 33.118C22.8582 32.7846 23.7071 32.2692 24.6166 30.3592C25.5261 28.4493 23.8587 27.267 23.3433 24.9932C22.931 23.1742 22.2418 21.6685 21.9487 21.143C21.4434 21.6382 20.0388 23.1924 18.4623 25.448C16.4917 28.2674 17.1587 31.0868 17.1587 31.3294C17.1587 31.5719 17.765 32.542 17.1587 33.118C16.5524 33.6941 12.9144 33.1787 11.2773 31.8751C9.64021 30.5715 13.3388 26.6303 14.2483 24.2353C15.1578 21.8403 17.5831 14.2612 17.1587 13.9883C16.7343 13.7155 14.794 14.8069 14.2483 14.5946C13.7026 14.3824 14.0058 12.6241 12.9144 12.715C11.823 12.806 10.4891 13.9883 10.095 14.2612C9.70084 14.534 9.82211 13.9883 9.51894 13.7458C9.21577 13.5033 8.97324 13.9883 8.5185 13.9883C8.06375 13.9883 7.27552 16.7471 7.36647 18.3539C7.45742 19.9607 8.97324 20.4761 9.24609 20.4761C9.51894 20.4761 8.97324 19.3543 9.51894 18.5964C10.0646 17.8385 10.4891 18.4448 11.2773 18.3539C12.0655 18.2629 12.0352 19.415 11.9139 21.143C11.7927 22.8711 10.6407 22.6892 8.97324 23.4774C7.30583 24.2656 4.8502 21.5068 4.00133 20.0213C3.32224 18.8329 3.49606 16.7168 3.66785 15.8073L0.999997 14.5946C1.80844 14.6553 3.20704 14.7402 2.33393 14.5946C1.46081 14.4491 1.5457 14.1298 1.69728 13.9883L3.42532 13.9883C3.5668 13.7155 3.98921 12.7757 4.54703 11.1992C5.10486 9.62274 5.64853 9.20841 5.85064 9.19831C5.9618 8.79409 6.35996 7.7128 7.0633 6.6214C7.94248 5.25716 8.54881 4.07482 9.82211 2.55899C11.0954 1.04316 13.8845 1.01285 14.5212 1.43728C15.1578 1.86171 21.6456 1.22507 23.5252 1.01285C25.0289 0.843078 28.5173 2.3973 30.0735 3.19564C31.3064 2.79142 34.615 2.22551 37.9862 3.19564C42.2002 4.4083 42.1698 8.19786 44.1707 9.19831Z" fill="#FF0000"/>
<path d="M45.7169 18.1114C45.5427 16.3114 45.7817 14.6877 46.0086 13.7458M45.7169 18.1114C45.884 19.8387 45.744 20.2575 45.6104 20.4761M45.7169 18.1114L46.0047 14.2612M46.0086 13.7458C46.066 13.5074 46.1226 13.3126 46.1716 13.1698C45.9594 12.1996 46.1716 10.1988 44.1707 9.19831C42.1698 8.19786 42.2002 4.4083 37.9862 3.19564C34.615 2.22551 31.3064 2.79142 30.0735 3.19564C28.5173 2.3973 25.0289 0.843078 23.5252 1.01285C21.6456 1.22507 15.1578 1.86171 14.5212 1.43728C13.8845 1.01285 11.0954 1.04316 9.82211 2.55899C8.54881 4.07482 7.94248 5.25716 7.0633 6.6214C6.35996 7.7128 5.9618 8.79409 5.85064 9.19831C5.64853 9.20841 5.10486 9.62274 4.54703 11.1992C3.98921 12.7757 3.5668 13.7155 3.42532 13.9883L1.69728 13.9883C1.5457 14.1298 1.46081 14.4491 2.33393 14.5946C3.20704 14.7402 1.80844 14.6553 0.999997 14.5946L3.66785 15.8073C3.49606 16.7168 3.32224 18.8329 4.00133 20.0213C4.8502 21.5068 7.30583 24.2656 8.97324 23.4774C10.6407 22.6892 11.7927 22.8711 11.9139 21.143C12.0352 19.415 12.0655 18.2629 11.2773 18.3539C10.4891 18.4448 10.0646 17.8385 9.51894 18.5964C8.97324 19.3543 9.51894 20.4761 9.24609 20.4761C8.97324 20.4761 7.45742 19.9607 7.36647 18.3539C7.27552 16.7471 8.06375 13.9883 8.5185 13.9883C8.97324 13.9883 9.21577 13.5033 9.51894 13.7458C9.82211 13.9883 9.70084 14.534 10.095 14.2612C10.4891 13.9883 11.823 12.806 12.9144 12.715C14.0058 12.6241 13.7026 14.3824 14.2483 14.5946C14.794 14.8069 16.7343 13.7155 17.1587 13.9883C17.5831 14.2612 15.1578 21.8403 14.2483 24.2353C13.3388 26.6303 9.64021 30.5715 11.2773 31.8751C12.9144 33.1787 16.5524 33.6941 17.1587 33.118C17.765 32.542 17.1587 31.5719 17.1587 31.3294C17.1587 31.0868 16.4917 28.2674 18.4623 25.448C20.0388 23.1924 21.4434 21.6382 21.9487 21.143C22.2418 21.6685 22.931 23.1742 23.3433 24.9932C23.8587 27.267 25.5261 28.4493 24.6166 30.3592C23.7071 32.2692 22.8582 32.7846 23.3433 33.118C23.8283 33.4515 27.7998 33.9063 28.8306 33.5122C29.8613 33.118 29.6794 31.8447 29.255 31.3294C28.8306 30.814 29.255 28.8131 28.8306 27.267C28.4061 25.7208 27.2541 19.7788 28.0423 19.4756C28.8306 19.1724 33.8328 20.9308 34.5604 20.9308C35.288 20.9308 36.2581 19.5969 37.7739 20.4761C39.2898 21.3552 40.8056 21.1733 42.1395 23.4774C43.4735 25.7814 44.8377 28.3887 44.5042 30.7534C44.2374 32.6451 45.0196 33.118 45.444 33.118C46.303 33.209 48.1058 33.0877 48.4454 31.8751C48.8698 30.3592 49.4458 30.3289 48.4454 29.8439C47.4449 29.3588 47.5055 28.328 46.4748 26.0846C45.444 23.8412 45.444 21.5978 45.444 20.9308C45.444 20.6725 45.5259 20.6143 45.6104 20.4761M46.0086 13.7458C45.9864 13.8568 45.9868 14.0328 46.0047 14.2612M45.6104 20.4761C45.7431 20.6276 46.0412 21.1673 46.1716 22.1131C46.3347 23.2955 46.9295 24.5081 46.7476 24.9932C46.6021 25.3813 47.2125 26.6707 47.5359 27.267C48.0108 27.5802 48.9183 28.1764 48.7485 28.0552C48.5363 27.9036 47.2933 24.9932 47.1417 22.1131C47.01 19.6099 46.1232 15.7783 46.0047 14.2612M18.2198 13.1698C20.3419 12.0582 24.7196 9.59849 25.2532 8.65261C25.9202 7.47027 26.9509 7.50058 26.1021 5.92412C25.2532 4.34766 25.0107 3.28659 22.646 2.92279" stroke="white"/>
<path d="M31.8319 19.415C32.2664 19.6374 33.4084 19.9911 34.4997 19.6273C35.5911 19.2635 37.299 19.3342 38.0165 19.415M39.5929 17.9295C39.5323 15.676 39.6536 10.8233 40.6237 9.4409M15.2791 9.4409C15.3599 9.40048 15.5398 9.08317 15.6126 8.13729C15.7035 6.95495 16.6736 4.34773 18.2198 3.95361M8.97324 12.6848C9.01366 12.5635 8.85803 12.3695 7.91216 12.5635C6.72981 12.806 5.57779 13.5336 4.94114 13.6246C4.43182 13.6973 4.08217 13.8974 3.97101 13.9884C3.52637 14.0894 2.59464 14.2855 2.42487 14.2612C2.21265 14.2309 3.15247 14.6857 3.395 14.5947C3.63753 14.5038 7.21488 14.3219 8.09406 13.5033" stroke="white"/>
<path d="M9.91306 7.74312C9.87264 7.60165 9.85849 7.28838 10.1253 7.16711C10.4588 7.01553 11.0954 6.71236 11.1257 6.86394C11.156 7.01553 11.2167 6.98521 10.9741 7.16711C10.7316 7.34901 11.0045 7.56123 10.6407 7.56123C10.2769 7.56123 10.2465 7.37933 10.1253 7.56123" stroke="white"/>
<path d="M27.9211 10.5626C28.295 10.5424 28.97 11.0416 28.679 13.2001C28.3152 15.8983 27.6482 18.1417 27.9211 18.7784" stroke="white"/>
<path d="M9.23229 6.10535L8.85143 6.51941L8.47057 6.10535L8.85143 5.69226L9.23229 6.10535Z" fill="#FFE0B2" stroke="white"/>
</svg>
