<svg width="49" height="34" viewBox="0 0 49 34" fill="none" xmlns="http://www.w3.org/2000/svg">
<path d="M9.4577 18.8097C9.46781 18.9512 9.57897 19.2402 9.94277 19.2644" stroke="white"/>
<path d="M10.4582 20.3559C10.1752 20.3155 9.56687 20.0952 9.39709 19.5374" stroke="white"/>
<path d="M9.33648 6.31931C9.16469 6.23847 8.97268 6.07678 9.57901 6.07678C10.1853 6.07678 10.5795 6.23847 10.7007 6.31931M10.7007 7.28944C10.7007 7.45113 10.6643 7.77451 10.5188 7.77451M8.39667 12.5342C8.51793 12.6858 8.87567 12.9162 9.33648 12.6252C9.91249 12.2614 10.4885 11.3519 10.7007 10.5333" stroke="white"/>
<path d="M3.57632 14.3531L3.27316 15.3536L1.66638 14.6563C1.77754 14.6664 2.11507 14.6806 2.57588 14.6563C3.03669 14.6321 3.43485 14.4441 3.57632 14.3531Z" stroke="white"/>
<path d="M6.00164 15.6871C5.48626 15.5254 4.28572 15.2505 3.60663 15.4445M5.39531 16.5056C4.8294 16.1923 3.61876 15.6204 3.30347 15.8387M4.72834 20.9621C5.16288 21.043 6.14109 21.0955 6.57765 20.659" stroke="white"/>
<path d="M43.5032 8.86591C45.5041 9.86636 45.2919 11.8672 45.5041 12.8374C45.4551 12.9803 45.3984 13.175 45.341 13.4134C45.3188 13.5245 45.3193 13.7004 45.3371 13.9288C45.4556 15.4459 46.3425 19.2775 46.4742 21.7807C46.6258 24.6608 47.8688 27.5712 48.081 27.7228C48.2508 27.8441 47.3433 27.2478 46.8683 26.9346C46.5449 26.3383 45.9346 25.0489 46.0801 24.6608C46.262 24.1758 45.6671 22.9631 45.5041 21.7807C45.3736 20.8349 45.0756 20.2952 44.9428 20.1437C44.8584 20.2819 44.7765 20.3401 44.7765 20.5984C44.7765 21.2654 44.7765 23.5088 45.8072 25.7522C46.838 27.9956 46.7774 29.0264 47.7778 29.5115C48.7783 29.9965 48.2023 30.0268 47.7778 31.5427C47.4383 32.7553 45.6355 32.8766 44.7765 32.7856C44.3521 32.7856 43.5699 32.3127 43.8367 30.421C44.1702 28.0563 42.8059 25.449 41.472 23.145C40.1381 20.8409 38.6222 21.0228 37.1064 20.1437C35.5906 19.2645 34.6204 20.5984 33.8929 20.5984C33.1653 20.5984 28.163 18.84 27.3748 19.1432C26.5866 19.4464 27.7386 25.3884 28.163 26.9346C28.5875 28.4807 28.163 30.4816 28.5875 30.997C29.0119 31.5124 29.1938 32.7856 28.163 33.1798C27.1323 33.5739 23.1608 33.1191 22.6757 32.7856C22.1907 32.4522 23.0395 31.9368 23.949 30.0268C24.8585 28.1169 23.1911 26.9346 22.6757 24.6608C22.2634 22.8418 21.5742 21.3361 21.2812 20.8106C20.7759 21.3058 19.3712 22.86 17.7948 25.1156C15.8242 27.935 16.4912 30.7544 16.4912 30.997C16.4912 31.2395 17.0975 32.2096 16.4912 32.7856C15.8848 33.3617 12.2469 32.8463 10.6098 31.5427C8.97267 30.2391 12.6713 26.2979 13.5808 23.9029C14.4903 21.5079 16.9156 13.9288 16.4912 13.6559C16.0667 13.3831 14.1265 14.4745 13.5808 14.2623C13.0351 14.05 13.3382 12.2917 12.2469 12.3826C11.1555 12.4736 9.82153 13.6559 9.42742 13.9288C9.0333 14.2016 9.15457 13.6559 8.8514 13.4134C8.54823 13.1709 8.3057 13.6559 7.85096 13.6559C7.39621 13.6559 6.60798 16.4147 6.69893 18.0215C6.78988 19.6283 8.3057 20.1437 8.57855 20.1437C8.8514 20.1437 8.30571 19.0219 8.8514 18.264C9.3971 17.5061 9.82153 18.1124 10.6098 18.0215C11.398 17.9305 11.3677 19.0826 11.2464 20.8106C11.1251 22.5387 9.97311 22.3568 8.3057 23.145C6.6383 23.9332 4.18266 21.1744 3.33379 19.6889C2.6547 18.5005 2.82852 16.3844 3.00031 15.4749L0.332458 14.2623C1.1409 14.3229 2.5395 14.4078 1.66639 14.2623C0.793271 14.1167 0.878158 13.7974 1.02974 13.6559H2.75778C2.89926 13.3831 3.32167 12.4433 3.87949 10.8668C4.43732 9.29034 4.98099 8.87602 5.1831 8.86591C5.29427 8.46169 5.69242 7.3804 6.39577 6.28901C7.27494 4.92476 7.88128 3.74242 9.15457 2.22659C10.4279 0.710768 13.217 0.680454 13.8536 1.10488C14.4903 1.52931 20.978 0.89267 22.8576 0.680454C24.3613 0.510682 27.8498 2.06491 29.406 2.86324C30.6389 2.45902 33.9474 1.89311 37.3186 2.86324C41.5326 4.0759 41.5023 7.86547 43.5032 8.86591Z" fill="#FF00DD"/>
<path d="M45.0493 17.779C44.8751 15.979 45.1141 14.3553 45.341 13.4134M45.0493 17.779C45.2165 19.5063 45.0764 19.9251 44.9428 20.1437M45.0493 17.779L45.3371 13.9288M45.341 13.4134C45.3984 13.175 45.4551 12.9803 45.5041 12.8374C45.2919 11.8672 45.5041 9.86636 43.5032 8.86591C41.5023 7.86547 41.5326 4.0759 37.3186 2.86324C33.9474 1.89311 30.6389 2.45902 29.406 2.86324C27.8498 2.06491 24.3613 0.510682 22.8576 0.680454C20.978 0.89267 14.4903 1.52931 13.8536 1.10488C13.217 0.680454 10.4279 0.710768 9.15457 2.22659C7.88128 3.74242 7.27494 4.92476 6.39577 6.28901C5.69242 7.3804 5.29427 8.46169 5.1831 8.86591C4.98099 8.87602 4.43732 9.29034 3.87949 10.8668C3.32167 12.4433 2.89926 13.3831 2.75778 13.6559H1.02974C0.878158 13.7974 0.793271 14.1167 1.66639 14.2623C2.5395 14.4078 1.1409 14.3229 0.332458 14.2623L3.00031 15.4749C2.82852 16.3844 2.6547 18.5005 3.33379 19.6889C4.18266 21.1744 6.6383 23.9332 8.3057 23.145C9.97311 22.3568 11.1251 22.5387 11.2464 20.8106C11.3677 19.0826 11.398 17.9305 10.6098 18.0215C9.82153 18.1124 9.3971 17.5061 8.8514 18.264C8.3057 19.0219 8.8514 20.1437 8.57855 20.1437C8.3057 20.1437 6.78988 19.6283 6.69893 18.0215C6.60798 16.4147 7.39621 13.6559 7.85096 13.6559C8.3057 13.6559 8.54824 13.1709 8.8514 13.4134C9.15457 13.6559 9.0333 14.2016 9.42742 13.9288C9.82153 13.6559 11.1555 12.4736 12.2469 12.3826C13.3382 12.2917 13.0351 14.05 13.5808 14.2623C14.1265 14.4745 16.0667 13.3831 16.4912 13.6559C16.9156 13.9288 14.4903 21.5079 13.5808 23.9029C12.6713 26.2979 8.97267 30.2391 10.6098 31.5427C12.2469 32.8463 15.8848 33.3617 16.4912 32.7856C17.0975 32.2096 16.4912 31.2395 16.4912 30.997C16.4912 30.7544 15.8242 27.935 17.7948 25.1156C19.3712 22.86 20.7759 21.3058 21.2812 20.8106C21.5742 21.3361 22.2634 22.8418 22.6757 24.6608C23.1911 26.9346 24.8585 28.1169 23.949 30.0268C23.0395 31.9368 22.1907 32.4522 22.6757 32.7856C23.1608 33.1191 27.1323 33.5739 28.163 33.1798C29.1938 32.7856 29.0119 31.5124 28.5875 30.997C28.163 30.4816 28.5875 28.4807 28.163 26.9346C27.7386 25.3884 26.5866 19.4464 27.3748 19.1432C28.163 18.84 33.1653 20.5984 33.8929 20.5984C34.6204 20.5984 35.5906 19.2645 37.1064 20.1437C38.6222 21.0228 40.1381 20.8409 41.472 23.145C42.8059 25.449 44.1702 28.0563 43.8367 30.421C43.5699 32.3127 44.3521 32.7856 44.7765 32.7856C45.6355 32.8766 47.4383 32.7553 47.7778 31.5427C48.2023 30.0268 48.7783 29.9965 47.7778 29.5115C46.7774 29.0264 46.838 27.9956 45.8072 25.7522C44.7765 23.5088 44.7765 21.2654 44.7765 20.5984C44.7765 20.3401 44.8584 20.2819 44.9428 20.1437M45.341 13.4134C45.3188 13.5245 45.3193 13.7004 45.3371 13.9288M44.9428 20.1437C45.0755 20.2952 45.3736 20.8349 45.5041 21.7807C45.6671 22.9631 46.262 24.1758 46.0801 24.6608C45.9346 25.0489 46.5449 26.3383 46.8683 26.9346C47.3433 27.2478 48.2508 27.8441 48.081 27.7228C47.8688 27.5712 46.6258 24.6608 46.4742 21.7807C46.3425 19.2775 45.4556 15.4459 45.3371 13.9288M17.5522 12.8374C19.6744 11.7258 24.0521 9.26609 24.5857 8.32021C25.2526 7.13787 26.2834 7.16819 25.4345 5.59173C24.5857 4.01527 24.3431 2.95419 21.9785 2.59039" stroke="white"/>
<path d="M31.1644 19.0826C31.5989 19.305 32.7408 19.6587 33.8322 19.2949C34.9236 18.9311 36.6314 19.0018 37.3489 19.0826M38.9254 17.5971C38.8648 15.3436 38.986 10.4909 39.9562 9.10851M14.6115 9.10851C14.6924 9.06808 14.8723 8.75077 14.945 7.8049C15.036 6.62255 16.0061 4.01533 17.5522 3.62122M8.3057 12.3524C8.34612 12.2311 8.1905 12.0371 7.24462 12.2311C6.06228 12.4736 4.91025 13.2012 4.2736 13.2922C3.76429 13.3649 3.41464 13.565 3.30348 13.656C2.85883 13.757 1.92711 13.9531 1.75733 13.9288C1.54512 13.8985 2.48493 14.3533 2.72746 14.2623C2.96999 14.1714 6.54734 13.9895 7.42652 13.1709" stroke="white"/>
<path d="M9.24552 7.41073C9.20509 7.26925 9.19095 6.95598 9.45773 6.83471C9.79121 6.68313 10.4279 6.37996 10.4582 6.53155C10.4885 6.68313 10.5491 6.65281 10.3066 6.83471C10.0641 7.01661 10.3369 7.22883 9.97311 7.22883C9.60932 7.22883 9.579 7.04693 9.45773 7.22883" stroke="white"/>
<path d="M27.2535 10.2302C27.6274 10.21 28.3025 10.7092 28.0114 12.8677C27.6476 15.5659 26.9807 17.8093 27.2535 18.446" stroke="white"/>
<path d="M8.56476 5.77295L8.1839 6.18701L7.80304 5.77295L8.1839 5.35986L8.56476 5.77295Z" fill="#FFE0B2" stroke="white"/>
</svg>
