<?xml version="1.0" encoding="utf-8"?>
<!-- Generator: Adobe Illustrator 24.2.1, SVG Export Plug-In . SVG Version: 6.00 Build 0)  -->
<svg version="1.1" xmlns="http://www.w3.org/2000/svg" xmlns:xlink="http://www.w3.org/1999/xlink" x="0px" y="0px"
	 viewBox="0 0 513.6 151.9" style="enable-background:new 0 0 513.6 151.9;" xml:space="preserve">
<style type="text/css">
	.st0{fill:none;stroke:#C81617;stroke-width:5;stroke-miterlimit:10;}
	.st1{fill:#C81617;}
	.st2{fill:#FFFFFF;}
	.st3{fill:#010202;}
	.st4{fill:#FFFFFF;stroke:#010202;stroke-miterlimit:10;}
	.st5{fill:#FFFFFF;stroke:#010202;stroke-width:2;stroke-miterlimit:10;}
	.st6{fill:#FAFAFA;}
</style>
<g id="Ganopoly">
	<path class="st0" d="M499.1,60.3v68.6c0,5.8-4.7,10.5-10.5,10.5H24.8c-5.8,0-10.5-4.7-10.5-10.5V60.3c0-5.8,4.7-10.5,10.5-10.5H213
		c10.7-11.1,26.3-18,43.7-18s33,7,43.7,18h188.2C494.4,49.8,499.1,54.5,499.1,60.3z"/>
	<path class="st1" d="M492.1,61v67.5c0,1.9-1.5,3.4-3.4,3.4H24.6c-1.9,0-3.4-1.5-3.4-3.4V61c0-1.9,1.5-3.4,3.4-3.4h190.9
		c9.4-10.9,24.5-17.9,41.5-17.9c17,0,32.1,7,41.5,17.9h190.3C490.6,57.6,492.1,59.2,492.1,61z"/>
	<g>
		<path class="st2" d="M68.9,93h26.1c0.1,0.3,0.1,0.7,0.1,1.1c0,0.4,0,1,0,1.8c0,8.6-2.4,15.5-7.3,20.8c-4.9,5.3-11.2,8-19,8
			c-8.9,0-16.2-2.8-22-8.5c-5.8-5.7-8.6-12.9-8.6-21.6c0-8.6,2.9-15.8,8.7-21.4c5.8-5.7,13.1-8.5,21.9-8.5c4.7,0,8.9,1,12.8,2.9
			c3.9,2,7.3,4.9,10.4,8.8l-8.2,6.1c-2.1-2.6-4.2-4.4-6.5-5.5s-4.9-1.7-7.9-1.7c-5.7,0-10.2,1.8-13.6,5.3c-3.4,3.5-5.1,8.2-5.1,14.1
			c0,5.8,1.7,10.4,5.1,14s7.8,5.3,13.3,5.3c4,0,7.3-0.9,9.8-2.8c2.5-1.9,3.8-4.4,3.8-7.4v-0.6H68.9V93z"/>
		<path class="st2" d="M97.9,123.2L119.7,66h14l22.1,57.2h-13.9l-4.6-12.1H115l-4,12.1H97.9z M134.3,101.4L127.9,83
			c-0.2-0.5-0.4-1.5-0.7-2.8c-0.3-1.3-0.6-3-0.9-4.9c-0.3,1.8-0.7,3.5-1,5c-0.3,1.5-0.5,2.5-0.7,2.9l-6.2,18.2H134.3z"/>
		<path class="st2" d="M161.8,123.2V66h12.7l25.3,33.3c0.7,0.9,1.5,2.3,2.4,4c0.9,1.7,1.8,3.7,2.7,6c-0.3-1.7-0.5-3.4-0.6-5
			c-0.1-1.7-0.2-3.8-0.2-6.3V66h11.7v57.2h-12l-26-33.9c-0.7-0.9-1.5-2.3-2.4-4c-0.9-1.7-1.8-3.7-2.7-6.1c0.3,1.6,0.5,3.3,0.6,5
			c0.1,1.7,0.2,3.8,0.2,6.3v32.7H161.8z"/>
		<path class="st2" d="M287,94.7c0,4.1-0.8,8-2.3,11.6c-1.5,3.6-3.7,6.8-6.6,9.6c-3,2.8-6.3,5-10,6.5c-3.7,1.5-7.6,2.3-11.6,2.3
			c-3.5,0-6.9-0.6-10.3-1.8c-3.3-1.2-6.4-2.9-9.2-5.1c-3.6-2.9-6.3-6.3-8.3-10.3s-2.9-8.3-2.9-12.9c0-4.1,0.8-8,2.3-11.6
			c1.5-3.6,3.7-6.8,6.6-9.6c2.9-2.8,6.2-4.9,10-6.5c3.8-1.5,7.7-2.3,11.7-2.3c4,0,7.9,0.8,11.6,2.3c3.8,1.5,7.1,3.7,10,6.5
			c2.9,2.8,5.1,6,6.6,9.6C286.3,86.8,287,90.6,287,94.7z M256.6,113.8c5.2,0,9.5-1.8,12.8-5.4c3.4-3.6,5.1-8.2,5.1-13.7
			c0-5.4-1.7-10-5.1-13.7c-3.4-3.7-7.7-5.5-12.8-5.5c-5.2,0-9.5,1.8-12.9,5.5c-3.4,3.7-5.1,8.2-5.1,13.7c0,5.5,1.7,10.1,5,13.7
			C247,112,251.3,113.8,256.6,113.8z"/>
		<path class="st2" d="M297.3,123.2V66h14.1c7.5,0,13,1.4,16.6,4.3c3.6,2.9,5.4,7.3,5.4,13.3c0,5.5-1.8,9.9-5.4,13
			c-3.6,3.2-8.6,4.7-15,4.7h-3.4v21.8H297.3z M309.6,91.8h1.8c3.3,0,5.8-0.7,7.3-2.1c1.5-1.4,2.3-3.6,2.3-6.6c0-2.8-0.8-4.9-2.3-6.2
			c-1.5-1.3-3.9-1.9-7.3-1.9h-1.8V91.8z"/>
		<path class="st2" d="M400.4,94.7c0,4.1-0.8,8-2.3,11.6c-1.5,3.6-3.7,6.8-6.6,9.6c-3,2.8-6.3,5-10,6.5c-3.7,1.5-7.6,2.3-11.6,2.3
			c-3.5,0-6.9-0.6-10.3-1.8c-3.3-1.2-6.4-2.9-9.2-5.1c-3.6-2.9-6.3-6.3-8.3-10.3s-2.9-8.3-2.9-12.9c0-4.1,0.8-8,2.3-11.6
			c1.5-3.6,3.7-6.8,6.6-9.6c2.9-2.8,6.2-4.9,10-6.5c3.8-1.5,7.7-2.3,11.7-2.3c4,0,7.9,0.8,11.6,2.3c3.8,1.5,7.1,3.7,10,6.5
			c2.9,2.8,5.1,6,6.6,9.6C399.6,86.8,400.4,90.6,400.4,94.7z M369.9,113.8c5.2,0,9.5-1.8,12.8-5.4c3.4-3.6,5.1-8.2,5.1-13.7
			c0-5.4-1.7-10-5.1-13.7c-3.4-3.7-7.7-5.5-12.8-5.5c-5.2,0-9.5,1.8-12.9,5.5c-3.4,3.7-5.1,8.2-5.1,13.7c0,5.5,1.7,10.1,5,13.7
			C360.3,112,364.6,113.8,369.9,113.8z"/>
		<path class="st2" d="M410.7,123.2V66h12.2v46.8h19.5v10.4H410.7z"/>
		<path class="st2" d="M456.1,123.2V97.1L436.7,66h14.3l8.5,15.7c0.4,0.8,0.8,1.8,1.3,3c0.4,1.2,0.9,2.6,1.4,4.1
			c0.4-1.3,0.8-2.6,1.2-3.8c0.5-1.2,1-2.3,1.5-3.4l8.4-15.6h14.3l-19.4,31.1v26.1H456.1z"/>
	</g>
</g>
<g id="Personnage">
	<path class="st3" d="M206.7,60.9c0,0-7.6,15.1-6.8,16.8c0.8,1.7,26.1,11.5,42.1,10.6c-0.8,6.3-0.9,8.8-1.7,15.1
		c1.8,4,10.6,15.7,25.7,11.6c2.8-0.8,5.4-4,6.7-6.5c24.5-47-5.3-10.4,45.4-44.5c-17-19.6-2-14.5-29.3-1.7c0,0,0.2-14.2-12.9-24.8
		c0.7-1.2,9-9.1,5-9.3c-1-0.1-2,0.4-2.6,1.2c-1.4,1.7-4.3,5.1-5,5.4c0,0-11.3-9.2-15.8-18.6c0,0-32,0.1-36.9,26
		c1.1,0.6,9.9,11.4,11.7,12.5l-1.9,4.1c-1.5,3.3-1.1,7.1,1.1,9.9c1.4,1.8,3.8,3.2,6.7,4.7C238.1,73.4,215.2,67.8,206.7,60.9z"/>
	<path class="st4" d="M200.8,74.4l-3.5-3.1c0,0-1.1-13.9,4.3-11.5c5.4,2.3,5.4,2.3,5.4,2.3L200.8,74.4z"/>
	<path class="st4" d="M309.2,52.2c0,0,2.4-5.1,3.5-3.1c1.1,2,8.8,3.7,7.9,7.2c-0.9,3.5-3.5,6.5-3.5,6.5L309.2,52.2z"/>
	<path class="st2" d="M299.1,19.7L299.1,19.7"/>
	<path class="st5" d="M293.9,24.9L293.9,24.9c-1.3-1.7-0.6-6.2,2-5.9c0.7,0.6,2.1,1,3.1,1c2.9,0.8,4.5-5,0.8-6
		c-10.7-4.5-17.1,8.6-7.9,15.7c0,0,56,52.8,56,52.8l3.6-3.9C351.5,78.7,304,35,293.9,24.9"/>
</g>
<g id="Layer_5">
	<path class="st4" d="M246.1,44.7c0,0-31.4-9.6-26.8,16.5c0,0,5.8,14.9,8.4,16.6c0,0,4.3,0.4,7.4,1.7c0,0,3.4,1.2,5.3,9.3
		c0,0,1.4,3.7,8.6,0c0,0,5.2-2.5,5.7-9.7C254.7,79.1,242.5,60.8,246.1,44.7z"/>
	<path class="st4" d="M266.5,36.5c0,0,16-28.6,30.8-6.7c0,0,6.2,14.8,5.4,17.7c0,0-2.8,3.3-4.2,6.4c0,0-1.6,3.2,2.6,10.4
		c0,0,1.5,3.6-6.2,6c0,0-5.5,1.8-10.8-3.1C284.1,67.2,280.2,45.7,266.5,36.5z"/>
	<g>
		<path class="st2" d="M243.1,50.8c0,0-23.2-6-18.7,14.3"/>
		<path class="st3" d="M243.1,50.8c-1.2-0.2-2.5-0.3-3.7-0.4c-1.2-0.1-2.5-0.1-3.7,0c-2.5,0.1-5,0.6-7,1.8c-2.1,1.1-3.5,3.2-4.1,5.6
			c-0.3,1.2-0.4,2.4-0.4,3.7c0,0.6,0.1,1.2,0.1,1.9c0.1,0.6,0.2,1.2,0.2,1.9c-0.7-2.4-1.1-5-0.7-7.6c0.2-1.3,0.7-2.5,1.4-3.7
			c0.7-1.1,1.8-2,2.9-2.7c2.3-1.3,5-1.7,7.5-1.6C238.2,49.6,240.7,50,243.1,50.8z"/>
	</g>
	<g>
		<path class="st2" d="M273,38.8c0,0,12.6-20.4,23.4-2.6"/>
		<path class="st3" d="M273,38.8c1.2-2.2,2.8-4.3,4.6-6.1c1.8-1.8,4-3.3,6.6-4c1.3-0.3,2.7-0.4,4-0.1c1.3,0.3,2.5,0.9,3.6,1.7
			c2.1,1.6,3.6,3.7,4.7,5.9c-0.4-0.5-0.8-1-1.1-1.5c-0.4-0.5-0.8-1-1.2-1.4c-0.9-0.9-1.8-1.8-2.8-2.4c-2-1.3-4.5-1.9-6.8-1.2
			c-2.3,0.6-4.4,2-6.3,3.6c-0.9,0.8-1.8,1.7-2.7,2.6C274.6,36.8,273.8,37.8,273,38.8z"/>
	</g>
	<path class="st4" d="M286.9,57.4c-0.5-1.3-1.4-2.3-2.5-3.2c-0.3-1.4-0.7-2.8-1.2-4.2c-4.5-11.3-17-16.9-27.9-12.5
		c-3.8,1.5-6.9,4.1-9.1,7.2c-4.2,5.9-5.3,13.8-2.4,21.1c0.7,1.7,1.6,3.2,2.6,4.6c0,1,0.1,2.1,0.5,3c1.7,4.3,7.3,6.4,14.1,6.1
		c0.2,0,0.3,0,0.5,0c5,5.8,11,13.2,11.3,16.4c0.7,5.6-1.9,5.2-2.4,1.5c0,0-3.5-1.1-3.8-0.1c-0.3,1,0.7,3.8,1.6,5.4
		c0.3,0.6,8.1,4.9,13.6-5.3c0.3-6.9-0.8-16-1.5-25.3C285.8,67.5,288.7,61.9,286.9,57.4z"/>
	<ellipse transform="matrix(0.9279 -0.3729 0.3729 0.9279 -0.3705 104.3163)" class="st3" cx="269.5" cy="53.1" rx="2.4" ry="3.7"/>
	<ellipse transform="matrix(0.9279 -0.3729 0.3729 0.9279 -0.3705 104.3163)" class="st3" cx="269.5" cy="53.1" rx="2.4" ry="3.7"/>
	<ellipse transform="matrix(0.9279 -0.3729 0.3729 0.9279 -3.3114 99.7602)" class="st3" cx="256.2" cy="58.4" rx="2.4" ry="3.7"/>
	<path class="st4" d="M258.2,77c0,0-2.1,0.3-1.9,1.8c0.2,1.5,1.5,0.8,0.6,4.2s-2.4,5.1-1.9,5.5s3.9,2.5,7.9-7.1L258.2,77z"/>
	<path class="st4" d="M280.6,68c0,0,1.8-1.2,2.6,0c0.9,1.2-0.6,1.6,2.5,3.5c3,1.9,5.3,2,5.2,2.6s-1.1,4.5-10.6,0.3L280.6,68z"/>
	<g>
		<path class="st3" d="M258.3,63.6c0.7-1,1.6-1.8,2.6-2.6c1-0.7,2.1-1.3,3.2-1.8c0.6-0.2,1.2-0.4,1.7-0.6c0.6-0.1,1.2-0.3,1.8-0.3
			c1.2-0.2,2.4-0.1,3.6,0.1c-1.2,0.2-2.4,0.4-3.5,0.7c-1.1,0.3-2.2,0.6-3.3,1.1C262.3,61,260.3,62.2,258.3,63.6z"/>
	</g>
	<g>
		<path class="st3" d="M259.2,70.1c1.8-2.4,4.3-4.3,7-5.7c1.4-0.6,2.9-1.1,4.4-1.2c1.5-0.2,3.1,0,4.5,0.5c-1.5-0.1-3,0-4.4,0.3
			c-1.4,0.3-2.8,0.8-4.1,1.4c-1.3,0.6-2.6,1.3-3.8,2.1C261.6,68.3,260.3,69.1,259.2,70.1z"/>
	</g>
	<g>
		<path class="st3" d="M263.6,75.5c0.6-1,1.4-1.8,2.3-2.5c0.9-0.7,1.9-1.3,2.9-1.7c0.5-0.2,1.1-0.4,1.6-0.5c0.6-0.1,1.1-0.3,1.7-0.3
			c1.1-0.1,2.3,0,3.4,0.3c-1.1,0.1-2.2,0.2-3.3,0.5c-1.1,0.2-2.1,0.5-3.1,1C267.2,73,265.4,74.1,263.6,75.5z"/>
	</g>
	<g>
		<path class="st3" d="M266.8,81.2c0.5-0.9,1.2-1.6,2-2.2c0.8-0.6,1.7-1.1,2.6-1.5c0.9-0.4,1.9-0.6,2.9-0.7c1-0.1,2,0,3,0.2
			c-1,0.2-1.9,0.3-2.9,0.6c-0.9,0.2-1.8,0.5-2.7,0.9C270.1,79.1,268.4,80,266.8,81.2z"/>
	</g>
	<g>
		<path class="st3" d="M270.2,86.8c0.4-0.7,1-1.3,1.6-1.8c0.6-0.5,1.3-0.9,2.1-1.2c0.7-0.3,1.5-0.5,2.3-0.6c0.8-0.1,1.6,0,2.4,0.2
			c-0.8,0.2-1.5,0.4-2.2,0.6c-0.7,0.2-1.4,0.5-2.1,0.8C272.9,85.3,271.6,86.1,270.2,86.8z"/>
	</g>
	<g>
		<path class="st3" d="M273.1,90.9c0.3-0.5,0.7-1,1.2-1.3c0.5-0.4,1-0.7,1.5-0.9c0.6-0.2,1.2-0.4,1.8-0.3c0.6,0,1.3,0.3,1.6,0.8
			c-0.6-0.1-1.1-0.1-1.6,0c-0.5,0.1-1,0.3-1.5,0.5C275.2,90,274.2,90.5,273.1,90.9z"/>
	</g>
	<g>
		<path class="st3" d="M275.2,94.5c0.2-0.4,0.5-0.7,0.9-1c0.4-0.3,0.8-0.4,1.3-0.5c0.5-0.1,1,0,1.4,0.3c0.4,0.2,0.7,0.6,0.9,1
			c-0.5-0.1-0.8-0.2-1.2-0.3c-0.4,0-0.7-0.1-1,0C276.8,94.1,276.1,94.3,275.2,94.5z"/>
	</g>
	<g>
		<path class="st3" d="M250.8,51.4c-0.2-0.7-0.1-1.3,0.2-1.9c0.2-0.3,0.4-0.5,0.8-0.7c0.3-0.2,0.8-0.1,1,0.1
			c-0.3,0.2-0.5,0.3-0.6,0.5c-0.1,0.2-0.3,0.4-0.4,0.6C251.6,50.5,251.4,50.9,250.8,51.4z"/>
	</g>
	<g>
		<path class="st3" d="M264.8,44c0.2-0.3,0.5-0.5,0.9-0.7c0.3-0.1,0.7-0.2,1.1-0.2c0.4,0,0.8,0.1,1.1,0.3c0.3,0.2,0.6,0.5,0.7,0.9
			c-0.4-0.1-0.7-0.1-0.9-0.2c-0.3,0-0.6,0-0.8,0C266.1,44.1,265.5,44.1,264.8,44z"/>
	</g>
	<g>
		<path class="st3" d="M253.1,73.2c-0.4-0.1-0.8-0.4-1-0.8c-0.2-0.4-0.3-0.9-0.2-1.3c0.1-0.4,0.3-0.8,0.6-1.1c0.3-0.3,0.6-0.5,1-0.7
			c-0.1,0.4-0.2,0.8-0.3,1.1c-0.1,0.3-0.2,0.6-0.3,0.9C252.7,71.8,252.8,72.4,253.1,73.2z"/>
	</g>
	<g>
		<path class="st3" d="M279,59c0.3-0.3,0.8-0.4,1.2-0.3c0.4,0,0.8,0.3,1.2,0.5c0.3,0.3,0.5,0.7,0.7,1.1c0.1,0.4,0.2,0.8,0.1,1.2
			c-0.3-0.3-0.5-0.6-0.8-0.8c-0.2-0.2-0.4-0.5-0.7-0.7C280.3,59.6,279.8,59.3,279,59z"/>
	</g>
	<path class="st3" d="M222.5,44.2l9.7,10.4c0,0-8.6,13.6,5.9,18.7l1.3-8.3c0,0-0.7-7.2,2.7-9.4c0,0,3.7-5.8,7.1-6.8
		c3.4-0.9,22.4-8.2,23.7-10.2c1.4-2,7.3-6.5,7.3-6.5s4.9-10.6-2.8-1.9l-4.2,4.4l-13.3-17.2c-1.2-1.5-4.6-3.6-6.5-3.4
		c-7.7,0.7-28.6,9.6-32.1,24.9C220.9,40.9,221.2,42.9,222.5,44.2z"/>
	<path class="st6" d="M236.8,68.5c0,0-10.4-10.2,18.9-23.2l17.3-6.5c0,0-31.8,6-37.5,16.7c0,0-7.3,7.3-0.5,13.8
		C235,69.3,236.5,70.3,236.8,68.5z"/>
	<path class="st6" d="M233.5,26.1c0,0,8.7,10.4,9.6,10.4s11.7-6.8,13.5-6.6c0,0-8-11.8-7.3-12.3C250,17.1,235.5,21.2,233.5,26.1z"/>
	<path class="st6" d="M223.4,40.9c0,0-0.1-2.4,1.2-2.8l8.4,9c0,0-0.3,2.8-1.6,2.9L223.4,40.9z"/>
	<path class="st6" d="M263.8,37.2l-4.9-5.3l4.9-1.6C254,30,247.7,36,247.7,36c-9.3,4.6-16.2,17.7-16.2,17.7l0.8,0.9
		c9.5-12.9,32.5-15.9,32.5-15.9s2.6-1.6,4.7-2.7C271.6,34.9,263.8,37.2,263.8,37.2z M236.8,48.3c0,0,5.8-7.8,8.3-8.9l1.8,3.1
		L236.8,48.3z"/>
</g>
</svg>
