<svg width="321" height="95" viewBox="0 0 321 95" fill="none" xmlns="http://www.w3.org/2000/svg">
<path d="M311.938 37.7123V80.6155C311.938 84.2429 309 87.1823 305.375 87.1823H15.5C11.875 87.1823 8.9375 84.2429 8.9375 80.6155V37.7123C8.9375 34.0849 11.875 31.1455 15.5 31.1455H133.125C139.813 24.2034 149.563 19.8881 160.438 19.8881C171.313 19.8881 181.063 24.2659 187.75 31.1455H305.375C309 31.1455 311.938 34.0849 311.938 37.7123Z" stroke="white" stroke-width="5" stroke-miterlimit="10"/>
<path d="M160.625 25.3289C170.788 25.3289 179.828 29.3858 185.632 35.7292L186.184 36.3503L186.333 36.5242H305.5C306.329 36.5242 307.062 37.2808 307.062 38.1501V80.365C307.062 81.2774 306.349 81.9919 305.438 81.9919H15.375C14.464 81.9919 13.75 81.2774 13.75 80.365V38.1501C13.75 37.2377 14.464 36.5242 15.375 36.5242H134.917L135.066 36.3503C140.839 29.6518 150.134 25.3289 160.625 25.3289Z" fill="#C81617" stroke="white"/>
<path d="M43 40.9641C45.8585 40.9641 48.4057 41.5703 50.7715 42.7219V42.7229C53.0017 43.8673 54.9708 45.502 56.7822 47.6917L52.4561 50.9114C51.211 49.4416 49.9369 48.3795 48.5283 47.7053C47.019 46.983 45.3195 46.593 43.375 46.593C39.6969 46.593 36.7485 47.7609 34.5166 50.0598C32.2827 52.361 31.1875 55.4358 31.1875 59.2268C31.1876 62.7274 32.1529 65.5881 34.1074 67.8752L34.5117 68.3254C36.7457 70.6923 39.6353 71.7971 43.1875 71.7971C45.7593 71.7971 47.94 71.2176 49.6152 69.9436C51.2929 68.6677 52.1875 66.9607 52.1875 64.9172V64.0422H43.5625V58.6633H58.9336C58.9346 58.7188 58.9375 58.781 58.9375 58.8508V59.9768C58.9375 65.0917 57.5587 69.1796 54.7812 72.343L54.5078 72.6458C51.5459 75.8516 47.7445 77.4885 43 77.4885C37.724 77.4885 33.4001 75.8845 29.9336 72.636L29.6006 72.3167C26.0814 68.8559 24.3751 64.4861 24.375 59.1643C24.375 54.0736 26.0319 49.8136 29.335 46.4612L29.6602 46.1399L29.6631 46.137C33.185 42.6735 37.6171 40.9641 43 40.9641Z" fill="white" stroke="white"/>
<path d="M83.2197 41.7772L96.6455 76.5507H89.0332L86.2803 69.3055L86.1572 68.9833H71.5137L71.4004 69.326L69.0137 76.5507H61.9121L75.1562 41.7772H83.2197ZM78.4443 47.0116C78.3514 47.5697 78.244 48.107 78.1357 48.6249L77.8223 50.1229C77.728 50.5946 77.6513 50.9773 77.583 51.2733C77.5112 51.5845 77.4597 51.7463 77.4277 51.8104L77.4121 51.8407L77.4014 51.8729L73.5264 63.2557L73.3018 63.9169H84.6406L84.4102 63.2528L80.4102 51.745L80.4062 51.7343L80.4014 51.7235L80.3242 51.4833C80.2957 51.3811 80.264 51.2562 80.2285 51.1063L79.9873 50.0458C79.8039 49.2505 79.6188 48.2014 79.4316 47.0155L78.4443 47.0116Z" fill="white" stroke="white"/>
<path d="M108.813 41.7772L124.477 62.4061L124.48 62.41C124.786 62.803 125.133 63.3736 125.525 64.0839L125.933 64.8387C126.484 65.8812 127.039 67.1145 127.597 68.5399L128.555 68.2704C128.416 67.4867 128.313 66.7031 128.244 65.9462L128.187 65.1991C128.124 64.1414 128.063 62.8389 128.063 61.2899V41.7772H134.375V76.5507H127.621L111.521 55.5448L111.52 55.5428L111.363 55.3309C111.097 54.9551 110.802 54.4606 110.475 53.869L110.067 53.1141C109.516 52.0724 108.961 50.8413 108.405 49.3573L107.446 49.6249C107.584 50.3582 107.687 51.1277 107.756 51.9071L107.813 52.6893C107.876 53.7473 107.937 55.0498 107.938 56.5995V76.5507H101.625V41.7772H108.813Z" fill="white" stroke="white"/>
<path d="M160.25 40.9016C162.53 40.9016 164.759 41.3294 166.888 42.137L167.313 42.303L167.316 42.3049C169.482 43.1602 171.382 44.3898 173.068 45.9485L173.402 46.2649C175.057 47.8637 176.334 49.6731 177.237 51.6946L177.413 52.1018L177.419 52.1135C178.449 54.418 178.875 56.724 178.875 59.2268C178.875 61.5688 178.447 63.8014 177.642 65.8762L177.476 66.2893C176.565 68.4755 175.23 70.42 173.465 72.1252C171.745 73.7301 169.872 75.0072 167.794 75.9114L167.375 76.0872C165.119 77.0023 162.745 77.4885 160.313 77.4885C158.185 77.4885 156.118 77.1245 154.045 76.3928H154.046C152.158 75.7057 150.378 74.7512 148.756 73.5286L148.434 73.2805C146.38 71.624 144.81 69.7025 143.618 67.4612L143.385 67.0081C142.174 64.5845 141.625 61.9736 141.625 59.1643C141.625 56.8221 142.053 54.5889 142.858 52.5139L143.024 52.1018C143.878 50.052 145.105 48.214 146.709 46.5872L147.035 46.2649C148.799 44.5609 150.808 43.2802 153.132 42.301L153.131 42.3C155.449 41.3855 157.822 40.9016 160.25 40.9016ZM160.375 46.719C157.1 46.719 154.347 47.8241 152.154 50.0969L151.944 50.3206C149.728 52.7341 148.625 55.6721 148.625 59.2268C148.625 62.555 149.592 65.4015 151.489 67.6838L151.881 68.1321L151.887 68.1379C154.112 70.4959 156.934 71.6721 160.375 71.6721C163.753 71.6721 166.579 70.4953 168.744 68.1321L168.743 68.1311C170.963 65.7763 172.062 62.7744 172.063 59.2268C172.063 55.9539 171.094 53.1115 169.146 50.7795L168.743 50.3206C166.518 47.898 163.695 46.719 160.375 46.719Z" fill="white" stroke="white"/>
<path d="M194.625 41.7772C199.122 41.7772 202.36 42.5938 204.484 44.1981L204.687 44.3553C206.786 46.048 207.875 48.6359 207.875 52.2841C207.875 55.3995 206.924 57.8814 205.059 59.6844L204.674 60.036L204.668 60.0409C202.54 61.9335 199.551 62.8544 195.625 62.8544H193V76.4882H186.312V41.7772H194.625ZM193 57.913H194.625C196.736 57.913 198.454 57.4683 199.528 56.4647C200.602 55.4622 201.125 53.9303 201.125 51.9716C201.125 50.2468 200.662 48.8422 199.712 47.8993L199.515 47.7167C198.438 46.783 196.785 46.4061 194.625 46.4061H193V57.913Z" fill="white" stroke="white"/>
<path d="M231.125 40.9016C233.405 40.9016 235.634 41.3294 237.763 42.137L238.188 42.303L238.191 42.3049C240.357 43.1602 242.257 44.3898 243.943 45.9485L244.277 46.2649C245.932 47.8637 247.209 49.6731 248.112 51.6946L248.288 52.1018L248.289 52.1028C249.264 54.4207 249.75 56.7321 249.75 59.2268C249.75 61.5688 249.322 63.8014 248.517 65.8762L248.351 66.2893C247.44 68.4755 246.105 70.42 244.34 72.1252C242.62 73.7303 240.747 75.0072 238.668 75.9114L238.25 76.0872C235.994 77.0023 233.62 77.4885 231.188 77.4885C229.06 77.4885 226.993 77.1245 224.92 76.3928H224.921C223.033 75.7057 221.253 74.7512 219.631 73.5286L219.309 73.2805C217.118 71.5135 215.477 69.4447 214.26 67.0081C213.049 64.5845 212.5 61.9736 212.5 59.1643C212.5 56.8221 212.928 54.5889 213.733 52.5139L213.899 52.1018C214.753 50.052 215.98 48.214 217.584 46.5872L217.91 46.2649C219.674 44.5609 221.683 43.2802 224.007 42.301L224.006 42.3C226.324 41.3855 228.697 40.9016 231.125 40.9016ZM231.188 46.719C227.912 46.719 225.159 47.8241 222.967 50.0969L222.757 50.3206C220.541 52.7341 219.438 55.6721 219.438 59.2268C219.438 62.555 220.404 65.4015 222.302 67.6838L222.693 68.1321L222.699 68.1379C224.925 70.4959 227.747 71.6721 231.188 71.6721C234.566 71.6721 237.392 70.4953 239.557 68.1321L239.556 68.1311C241.775 65.7763 242.875 62.7744 242.875 59.2268C242.875 55.9539 241.906 53.1115 239.958 50.7795L239.556 50.3206C237.331 47.898 234.507 46.719 231.188 46.719Z" fill="white" stroke="white"/>
<path d="M263.813 41.7772V71.0468H276V76.5507H257.188V41.7772H263.813Z" fill="white" stroke="white"/>
<path d="M285.563 60.5848L285.486 60.4628L273.838 41.7772H281.577L286.739 51.3192H286.74C286.979 51.7964 287.217 52.3937 287.532 53.1503C287.657 53.5231 287.796 53.926 287.941 54.3475C288.09 54.7774 288.245 55.2283 288.4 55.6942L288.895 57.1757L289.353 55.6835C289.601 54.8761 289.847 54.0755 290.093 53.3368C290.397 52.6073 290.701 51.9364 291.009 51.2587L296.111 41.7772H303.85L292.201 60.4628L292.125 60.5848V76.5507H285.563V60.5848Z" fill="white" stroke="white"/>
<path d="M145.188 34.1475L144 36.7117C143.062 38.7755 143.313 41.1521 144.688 42.9033C145.563 44.029 147.063 44.9046 148.875 45.8427C148.875 45.8427 134.563 42.4029 129.25 38.025C129.25 38.025 124.5 47.4688 125 48.532C125.5 49.5952 141.313 55.7242 151.313 55.1613C150.813 59.1014 150.75 60.6649 150.25 64.605C151.375 67.1067 156.875 74.424 166.313 71.8598C168.063 71.3595 169.687 69.3582 170.5 67.7946C185.812 38.4003 167.188 61.2904 198.875 39.9638C188.25 27.7058 197.625 30.8954 180.563 38.9006C180.563 38.9006 180.688 30.0198 172.5 23.3904C172.938 22.6399 178.125 17.6992 175.625 17.5741C175 17.5116 174.375 17.8243 174 18.3246C173.125 19.3878 171.312 21.5142 170.875 21.7018" fill="#010202"/>
<path d="M125.5 46.5307L123.313 44.5919C123.313 44.5919 122.625 35.8987 126 37.3996C129.375 38.8381 129.375 38.8381 129.375 38.8381L125.5 46.5307Z" fill="white" stroke="#010202" stroke-miterlimit="10"/>
<path d="M193.25 32.6464C193.25 32.6464 194.75 29.4568 195.438 30.7076C196.125 31.9585 200.938 33.0217 200.375 35.2106C199.813 37.3995 198.188 39.2758 198.188 39.2758L193.25 32.6464Z" fill="white" stroke="#010202" stroke-miterlimit="10"/>
<path d="M205.625 47.2811C206 46.9684 205.625 46.4681 205.625 46.4681L192.813 20.6386C192.688 20.3884 192.625 20.0757 192.563 19.8255C192.563 19.3252 192.688 19.0125 192.625 18.4496C192.5 17.5741 191.875 18.0744 191.375 17.2614C191.125 16.8861 191.063 16.4483 191.063 16.1356C191.063 15.8854 191.188 15.6353 191.375 15.4477C195.688 11.9454 192.75 8.69322 192.75 8.69322C190.688 6.81698 190.188 5.75378 189.625 5.00329C189.563 4.87821 189.625 4.75313 189.75 4.69058C191 4.50296 190.688 4.37788 190.688 4.37788C190.688 4.37788 188.688 2.75181 188.563 1.93877C188.5 1.50099 188.312 1.87623 188.312 2.00131C187.5 5.37854 191 8.63068 191 8.63068C194.438 11.8203 190.5 14.0718 190.5 14.0718C190.063 14.2594 189.563 14.0718 189.25 13.8841C189.125 13.8216 189.063 13.6965 189 13.5714C188.438 12.4457 184.813 5.6287 184.938 5.44108C185.125 5.19091 185.5 5.44108 185.812 5.37854C186.125 5.316 185.938 5.12837 185.938 5.12837L182.75 2.62673C182.688 2.56419 182.625 2.62673 182.625 2.68927L182.688 6.6919C182.688 6.6919 182.688 6.94207 182.938 6.6919C183.188 6.44174 183.25 6.06649 183.5 6.06649C183.75 6.06649 187 13.0711 187.563 14.1968C187.625 14.3219 187.625 14.447 187.625 14.5721C187.625 14.9473 187.5 15.4477 187 15.6978C187 15.6978 182.875 17.5115 182.375 12.8209C182.375 12.8209 181.875 8.06781 178.688 6.6919C178.563 6.62936 178.188 6.56682 178.5 6.87952C179 7.50494 179.125 10.0691 179.125 10.0691C179.125 10.0691 179.063 10.3818 179.938 9.50625C180.063 9.38117 180.188 9.44371 180.25 9.56879C180.5 10.5069 181.063 11.445 181.313 14.2594C181.313 14.2594 182.125 18.5747 187.5 17.1988C187.75 17.1363 188 17.1988 188.188 17.3239C188.438 17.5115 188.75 17.8242 188.875 18.262C189.25 19.1376 188.375 19.3252 189.063 19.9506C189.5 20.3884 189.813 20.3884 190.188 20.7637C190.438 20.9513 190.625 21.2014 190.75 21.4516L203.625 47.2186C203.625 47.2186 203.875 47.844 204.313 47.7189L205.625 47.2811Z" fill="white" stroke="#010202" stroke-miterlimit="10"/>
<path d="M153.813 27.9559C153.813 27.9559 134.188 21.9519 137.063 38.2752C137.063 38.2752 140.688 47.5938 142.313 48.657C142.313 48.657 145 48.9072 146.938 49.7202C146.938 49.7202 149.063 50.4707 150.25 55.5365C150.25 55.5365 151.125 57.8505 155.625 55.5365C155.625 55.5365 158.875 53.973 159.188 49.47C159.188 49.47 151.563 38.025 153.813 27.9559Z" fill="white" stroke="#010202" stroke-miterlimit="10"/>
<path d="M166.563 22.8276C166.563 22.8276 176.563 4.94078 185.813 18.6373C185.813 18.6373 189.688 27.8934 189.188 29.7071C189.188 29.7071 187.438 31.7709 186.563 33.7097C186.563 33.7097 185.563 35.711 188.188 40.214C188.188 40.214 189.125 42.4655 184.313 43.9665C184.313 43.9665 180.875 45.0922 177.563 42.0277C177.563 42.0277 175.125 28.5813 166.563 22.8276Z" fill="white" stroke="#010202" stroke-miterlimit="10"/>
<path d="M151.938 31.7709C151.938 31.7709 137.437 28.0184 140.25 40.7142L151.938 31.7709Z" fill="white"/>
<path d="M151.938 31.7709C151.188 31.6458 150.375 31.5833 149.625 31.5207C148.875 31.4582 148.063 31.4582 147.313 31.5207C145.75 31.5833 144.188 31.896 142.938 32.6465C141.625 33.3344 140.75 34.6478 140.375 36.1488C140.188 36.8993 140.125 37.6498 140.125 38.4628C140.125 38.838 140.188 39.2133 140.188 39.6511C140.25 40.0263 140.313 40.4016 140.313 40.8394C139.875 39.3384 139.625 37.7123 139.875 36.0862C140 35.2732 140.313 34.5227 140.75 33.7722C141.188 33.0842 141.875 32.5214 142.563 32.0836C144 31.2706 145.688 31.0204 147.25 31.0829C148.875 31.0204 150.438 31.2706 151.938 31.7709Z" fill="#010202"/>
<path d="M170.625 24.266C170.625 24.266 178.5 11.5076 185.25 22.64L170.625 24.266Z" fill="white"/>
<path d="M170.625 24.266C171.375 22.8901 172.375 21.5768 173.5 20.451C174.625 19.3253 176 18.3872 177.625 17.9494C178.438 17.7618 179.313 17.6992 180.125 17.8868C180.938 18.0745 181.688 18.4497 182.375 18.95C183.688 19.9507 184.625 21.2641 185.313 22.64C185.063 22.3273 184.813 22.0146 184.625 21.7019C184.375 21.3892 184.125 21.0764 183.875 20.8263C183.313 20.2634 182.75 19.7005 182.125 19.3253C180.875 18.5123 179.313 18.137 177.875 18.5748C176.438 18.95 175.125 19.8256 173.938 20.8263C173.375 21.3266 172.813 21.8895 172.25 22.4524C171.625 23.0152 171.125 23.6406 170.625 24.266Z" fill="#010202"/>
<path d="M179.313 35.8987C179 35.0857 178.438 34.4603 177.75 33.8974C177.563 33.0218 177.313 32.1462 177 31.2707C174.188 24.2035 166.375 20.7012 159.563 23.453C157.188 24.3911 155.25 26.0172 153.875 27.956C151.25 31.6459 150.563 36.5867 152.375 41.1522C152.813 42.2154 153.375 43.1535 154 44.0291C154 44.6545 154.063 45.3424 154.313 45.9053C155.375 48.5946 158.875 49.9079 163.125 49.7203C163.25 49.7203 163.313 49.7203 163.438 49.7203C166.563 53.3477 170.313 57.9757 170.5 59.977C170.938 63.4794 169.313 63.2292 169 60.9152C169 60.9152 166.813 60.2272 166.625 60.8526C166.438 61.478 167.063 63.2292 167.625 64.2298C167.813 64.6051 172.688 67.2944 176.125 60.9152C176.313 56.5998 175.625 50.9086 175.188 45.0923C178.625 42.2154 180.438 38.7131 179.313 35.8987Z" fill="white" stroke="#010202" stroke-miterlimit="10"/>
<path d="M169.3 35.3511C170.068 35.042 170.305 33.8301 169.829 32.6442C169.353 31.4583 168.344 30.7476 167.575 31.0567C166.806 31.3659 166.569 32.5778 167.045 33.7636C167.522 34.9495 168.531 35.6602 169.3 35.3511Z" fill="#010202"/>
<path d="M169.3 35.3511C170.068 35.042 170.305 33.8301 169.829 32.6442C169.353 31.4583 168.344 30.7476 167.575 31.0567C166.806 31.3659 166.569 32.5778 167.045 33.7636C167.522 34.9495 168.531 35.6602 169.3 35.3511Z" fill="#010202"/>
<path d="M160.984 38.6791C161.752 38.37 161.989 37.1581 161.513 35.9722C161.037 34.7863 160.028 34.0756 159.259 34.3847C158.49 34.6939 158.253 35.9058 158.729 37.0916C159.206 38.2775 160.215 38.9882 160.984 38.6791Z" fill="#010202"/>
<path d="M161.375 48.1567C161.375 48.1567 160.062 48.3444 160.187 49.2825C160.312 50.2206 161.125 49.7828 160.562 51.9092C160 54.0356 159.063 55.0988 159.375 55.349C159.688 55.5991 161.812 56.9125 164.312 50.9085L161.375 48.1567Z" fill="white" stroke="#010202" stroke-miterlimit="10"/>
<path d="M175.375 42.528C175.375 42.528 176.5 41.7775 177 42.528C177.563 43.2785 176.625 43.5287 178.563 44.717C180.438 45.9052 181.875 45.9678 181.813 46.343C181.75 46.7183 181.125 49.1574 175.188 46.5306L175.375 42.528Z" fill="white" stroke="#010202" stroke-miterlimit="10"/>
<path d="M161.438 39.7762C161.875 39.1508 162.438 38.6504 163.063 38.1501C163.688 37.7123 164.375 37.3371 165.063 37.0244C165.438 36.8993 165.812 36.7742 166.125 36.6491C166.5 36.5866 166.875 36.4615 167.25 36.4615C168 36.3364 168.75 36.399 169.5 36.524C168.75 36.6491 168 36.7742 167.313 36.9618C166.625 37.1494 165.938 37.3371 165.25 37.6498C163.938 38.1501 162.688 38.9006 161.438 39.7762Z" fill="#010202"/>
<path d="M162 43.8414C163.125 42.3404 164.688 41.1522 166.375 40.2766C167.25 39.9013 168.188 39.5886 169.125 39.5261C170.063 39.401 171.063 39.5261 171.938 39.8388C171 39.7762 170.063 39.8388 169.188 40.0264C168.313 40.214 167.438 40.5267 166.625 40.902C165.813 41.2772 165 41.715 164.25 42.2154C163.5 42.7157 162.688 43.216 162 43.8414Z" fill="#010202"/>
<path d="M164.75 47.2186C165.125 46.5932 165.625 46.0929 166.188 45.6551C166.75 45.2173 167.375 44.8421 168 44.5919C168.313 44.4668 168.688 44.3417 169 44.2792C169.375 44.2167 169.688 44.0916 170.063 44.0916C170.75 44.029 171.5 44.0916 172.188 44.2792C171.5 44.3417 170.813 44.4043 170.125 44.5919C169.438 44.717 168.813 44.9046 168.188 45.2173C167 45.6551 165.875 46.343 164.75 47.2186Z" fill="#010202"/>
<path d="M166.75 50.7834C167.063 50.2206 167.5 49.7828 168 49.4075C168.5 49.0323 169.063 48.7196 169.625 48.4694C170.188 48.2192 170.813 48.0942 171.438 48.0316C172.063 47.9691 172.688 48.0316 173.313 48.1567C172.688 48.2818 172.125 48.3443 171.5 48.5319C170.938 48.657 170.375 48.8446 169.813 49.0948C168.813 49.4701 167.75 50.0329 166.75 50.7834Z" fill="#010202"/>
<path d="M168.875 54.2858C169.125 53.848 169.5 53.4727 169.875 53.16C170.25 52.8473 170.688 52.5972 171.188 52.4096C171.625 52.2219 172.125 52.0968 172.625 52.0343C173.125 51.9718 173.625 52.0343 174.125 52.1594C173.625 52.2845 173.188 52.4095 172.75 52.5346C172.313 52.6597 171.875 52.8473 171.438 53.035C170.563 53.3477 169.75 53.848 168.875 54.2858Z" fill="#010202"/>
<path d="M170.688 56.8499C170.875 56.5372 171.125 56.2245 171.438 56.0369C171.75 55.7867 172.063 55.5991 172.375 55.474C172.75 55.3489 173.125 55.2239 173.5 55.2864C173.875 55.2864 174.313 55.474 174.5 55.7867C174.125 55.7242 173.813 55.7242 173.5 55.7867C173.188 55.8493 172.875 55.9744 172.563 56.0994C172 56.2871 171.375 56.5998 170.688 56.8499Z" fill="#010202"/>
<path d="M172 59.1015C172.125 58.8513 172.313 58.6637 172.563 58.4761C172.813 58.2884 173.063 58.2259 173.375 58.1633C173.688 58.1008 174 58.1633 174.25 58.351C174.5 58.4761 174.688 58.7262 174.813 58.9764C174.5 58.9138 174.313 58.8513 174.063 58.7888C173.813 58.7888 173.625 58.7262 173.438 58.7888C173 58.8513 172.563 58.9764 172 59.1015Z" fill="#010202"/>
<path d="M156.75 32.1462C156.625 31.7084 156.688 31.3331 156.875 30.9579C157 30.7702 157.125 30.6452 157.375 30.5201C157.563 30.395 157.875 30.4575 158 30.5826C157.813 30.7077 157.688 30.7703 157.625 30.8953C157.563 31.0204 157.438 31.1455 157.375 31.2706C157.25 31.5833 157.125 31.8334 156.75 32.1462Z" fill="#010202"/>
<path d="M165.5 27.5182C165.625 27.3306 165.813 27.2055 166.063 27.0804C166.25 27.0179 166.5 26.9553 166.75 26.9553C167 26.9553 167.25 27.0179 167.438 27.1429C167.625 27.268 167.813 27.4557 167.875 27.7058C167.625 27.6433 167.438 27.6433 167.313 27.5807C167.125 27.5807 166.938 27.5807 166.813 27.5807C166.313 27.5807 165.938 27.5807 165.5 27.5182Z" fill="#010202"/>
<path d="M158.188 45.7802C157.938 45.7176 157.688 45.53 157.563 45.2798C157.438 45.0297 157.375 44.717 157.438 44.4668C157.5 44.2166 157.625 43.9665 157.813 43.7789C158 43.5912 158.188 43.4661 158.438 43.3411C158.375 43.5912 158.313 43.8414 158.25 44.029C158.188 44.2166 158.125 44.4043 158.063 44.5919C157.938 44.9046 158 45.2798 158.188 45.7802Z" fill="#010202"/>
<path d="M174.375 36.8993C174.563 36.7117 174.875 36.6491 175.125 36.7117C175.375 36.7117 175.625 36.8993 175.875 37.0244C176.063 37.212 176.188 37.4622 176.313 37.7123C176.375 37.9625 176.438 38.2127 176.375 38.4628C176.188 38.2752 176.063 38.0876 175.875 37.9625C175.75 37.8374 175.625 37.6498 175.438 37.5247C175.188 37.2746 174.875 37.0869 174.375 36.8993Z" fill="#010202"/>
<path d="M151.813 35.3357C151.813 35.3357 147.375 31.8334 144.75 26.6425C141.563 20.451 141.063 11.8828 154.25 4.2528C156.063 3.1896 158.125 2.75181 160.188 2.93943C187.375 5.6287 175.563 30.5201 175.563 30.5201C175.563 30.5201 161.625 23.8282 161.375 22.077C161.375 22.077 152.625 36.9618 151.813 35.3357Z" fill="#010202" stroke="#010202" stroke-miterlimit="10"/>
<path d="M144.438 26.3299C144.688 24.266 145.438 22.2647 146.375 20.3885C146.813 19.4503 147.438 18.5748 147.938 17.6992C148.438 16.8236 148.938 15.948 149.438 15.0725C150.375 13.2588 151.313 11.4451 152.188 9.56885C152.625 8.63073 153.063 7.75515 153.5 6.81704C153.75 6.37925 153.938 5.87892 154.125 5.44113C154.25 5.19097 154.313 5.00334 154.438 4.75318C154.563 4.50301 154.625 4.25285 154.688 4.00269C154.75 4.50301 154.563 5.06588 154.5 5.56621C154.375 6.06654 154.25 6.56687 154.125 7.0672C153.813 8.06786 153.5 9.06852 153.125 10.0066C152.375 11.9454 151.563 13.8216 150.563 15.6979C150.063 16.636 149.563 17.5116 149 18.3871L148.125 19.638C147.875 20.0758 147.563 20.5135 147.313 20.8888C146.188 22.5774 145.188 24.3911 144.438 26.3299Z" fill="white"/>
<path d="M149 32.6465C148.875 31.896 148.938 31.1455 149.063 30.3951C149.188 29.6446 149.313 28.8941 149.563 28.2061C149.75 27.4556 150 26.7677 150.25 26.0797C150.5 25.3918 150.813 24.7038 151.125 23.9533L151.188 23.8908C152.25 22.2647 153.313 20.6386 154.313 18.95C155.313 17.2614 156.313 15.6353 157.125 13.8842C157.313 13.4464 157.5 13.0086 157.625 12.5708C157.75 12.133 157.938 11.6327 158.063 11.1949C158.438 10.2568 158.813 9.31869 159.188 8.44311C159.625 7.56754 160 6.69196 160.375 5.75384C160.563 5.31606 160.75 4.87827 160.813 4.37794C160.875 3.94015 160.938 3.37728 160.563 3.06458C160.813 3.18966 160.938 3.43982 161 3.68999C161.063 3.94015 161.063 4.19032 161.063 4.44048C161.063 4.94081 160.938 5.44114 160.813 5.94147C160.563 6.87959 160.25 7.8177 159.938 8.75582C159.625 9.69394 159.313 10.5695 159 11.5076L158.813 12.1956C158.75 12.4457 158.688 12.6334 158.625 12.8835C158.5 13.3839 158.313 13.8217 158.125 14.322C157.313 16.1357 156.375 17.8868 155.313 19.5754C154.25 21.264 153.188 22.8901 152 24.4536L152.063 24.3911C151.75 25.0791 151.375 25.7045 151.063 26.3924C150.75 27.0804 150.438 27.7058 150.188 28.3937C149.938 29.0817 149.625 29.7696 149.438 30.4576C149.188 31.1456 149 31.896 149 32.6465Z" fill="white"/>
<path d="M161.625 21.8894C161.625 21.8894 168.188 9.75643 163.563 3.68994" stroke="white" stroke-width="1.25" stroke-miterlimit="10"/>
<path d="M178.125 18.8875C177.125 17.9494 176.125 17.0112 175.125 16.1357C174.875 15.948 174.625 15.7604 174.375 15.5728C174.125 15.3852 173.938 15.3226 173.563 15.1976C172.938 14.9474 172.313 14.5721 171.688 14.2594C171.063 13.8842 170.5 13.5715 169.938 13.1337C169.625 12.9461 169.375 12.6959 169.063 12.4457C169 12.3832 168.938 12.2581 168.813 12.1956C168.75 12.133 168.75 12.133 168.688 12.0705C168.563 11.9454 168.438 11.8203 168.375 11.7578C167.375 10.8822 166.313 10.0066 165.375 9.00598C166.625 9.56885 167.875 10.1943 169 10.9448C169.125 11.0698 169.313 11.1324 169.438 11.2575C169.5 11.32 169.563 11.3825 169.688 11.4451C169.75 11.5076 169.75 11.5076 169.813 11.5702C170.063 11.7578 170.313 11.9454 170.625 12.0705C171.188 12.4457 171.75 12.7585 172.375 13.0712C172.938 13.3839 173.563 13.6966 174.125 14.0093C174.375 14.1344 174.813 14.3845 175.063 14.5721C175.375 14.8223 175.625 15.0725 175.875 15.3226C176.75 16.5109 177.5 17.6367 178.125 18.8875Z" fill="white"/>
<path d="M176.75 26.5175C175.938 25.3292 175.188 24.2035 174.313 23.2028C173.875 22.7025 173.438 22.2647 172.875 21.8269C172.375 21.4517 171.813 21.0764 171.188 20.7012C170.063 19.9507 168.875 19.2002 167.75 18.3871C166.625 17.5741 165.5 16.7611 164.438 15.8855C165.75 16.3233 167.063 16.9487 168.313 17.5741C169.563 18.1995 170.75 18.8875 171.938 19.7005C172.5 20.0758 173.125 20.5135 173.625 20.9513C174.188 21.4517 174.688 22.0145 175.063 22.6399C175.813 23.8282 176.375 25.1416 176.75 26.5175Z" fill="white"/>
</svg>
