<svg width="482" height="75" viewBox="0 0 482 75" fill="none" xmlns="http://www.w3.org/2000/svg">
<path fill-rule="evenodd" clip-rule="evenodd" d="M89.5 1.589C92.917 4.196 119.379 19.335 120.468 19.307C121.62 19.277 150.958 2.43601 152.45 0.947006C153.048 0.351006 141.2 0.0119977 120.45 0.0319977C90.705 0.0609977 87.695 0.212005 89.5 1.589ZM208.55 0.904999C209.072 1.403 215.575 5.29601 223 9.55701C230.425 13.818 237.423 17.904 238.551 18.637C240.402 19.84 242.06 19.133 255.551 11.391C263.773 6.67401 271.159 2.18 271.964 1.407C273.224 0.196998 268.829 0 240.514 0C220.839 0 207.982 0.363999 208.55 0.904999ZM329.485 0.975998C329.817 1.512 333.106 3.62699 336.794 5.67599C340.482 7.724 347.462 11.79 352.304 14.711L361.108 20.023L377.554 10.394C386.599 5.097 394 0.592004 394 0.382004C394 0.172004 379.348 0 361.441 0C340.531 0 329.098 0.348998 329.485 0.975998ZM94.55 2.83099C95.073 3.28699 101.035 6.891 107.799 10.84C118.576 17.13 120.37 17.876 122.299 16.868C125.086 15.412 146.358 2.895 146.917 2.382C147.146 2.172 135.243 2 120.467 2C105.69 2 94.027 2.37399 94.55 2.83099ZM219.5 5.62399C222.8 7.61399 228.99 11.223 233.256 13.644L241.012 18.046L254.006 10.421C261.153 6.22701 267 2.617 267 2.39799C267 2.17899 254.962 2.00101 240.25 2.00301L213.5 2.005L219.5 5.62399ZM335.55 2.866C336.072 3.342 342.06 6.953 348.857 10.892L361.213 18.052L368.978 13.573C373.249 11.11 379.388 7.5 382.621 5.55L388.5 2.005L361.55 2.00301C346.309 2.00101 335.013 2.376 335.55 2.866ZM52 7.513C52 9.981 51.663 11.997 51.25 11.993C50.837 11.99 49.15 11.093 47.5 10C45.85 8.907 44.163 8.01 43.75 8.007C43.337 8.003 43 10.025 43 12.5C43 14.975 42.786 17 42.524 17C42.262 17 40.575 16.102 38.774 15.004C36.973 13.906 35.163 13.006 34.75 13.004C34.337 13.002 34 15.069 34 17.599V22.198L30.443 20.099C28.486 18.944 26.686 18 26.443 18C26.199 18 26 20.025 26 22.5C26 24.975 25.786 27 25.524 27C25.262 27 23.575 26.102 21.774 25.004C19.973 23.906 18.163 23.006 17.75 23.004C17.337 23.002 17 25.025 17 27.5C17 32.534 16.577 32.798 13 30C10.123 27.75 8.202 27.445 8.269 29.25C8.294 29.938 8.244 31.999 8.158 33.832L8 37.163L4.632 35.082C2.78 33.937 0.98 33 0.632 33C0.284 33 0 35.025 0 37.5C0 39.975 0.338 41.997 0.75 41.993C1.162 41.99 2.85 41.093 4.5 40C6.15 38.907 7.725 38.01 8 38.006C8.275 38.003 8.415 40.025 8.312 42.5C8.208 44.975 8.339 47 8.602 47C8.865 47 10.862 46.091 13.04 44.98L17 42.959V47.48C17 49.966 17.337 51.998 17.75 51.996C18.163 51.994 19.973 51.094 21.774 49.996C23.575 48.898 25.262 48 25.524 48C25.786 48 26 50.025 26 52.5C26 54.975 26.199 57 26.443 57C26.686 57 28.486 56.056 30.443 54.901L34 52.802V57.401C34 59.931 34.424 62 34.943 62C35.461 62 37.486 61.056 39.443 59.901L43 57.802V62.401C43 64.931 43.337 66.997 43.75 66.993C44.163 66.99 45.85 66.093 47.5 65C49.15 63.907 50.837 63.01 51.25 63.007C51.663 63.003 52 65.063 52 67.583C52 70.104 52.337 72.005 52.75 71.807C53.163 71.61 55.145 70.609 57.155 69.584C60.767 67.742 60.852 67.745 64.273 69.86C66.178 71.037 68.02 72 68.368 72C68.716 72 69 69.966 69 67.48V62.959L72.96 64.98C75.138 66.091 77.163 67 77.46 67C77.757 67 78 64.931 78 62.401V57.802L81.557 59.901C83.514 61.056 85.314 62 85.557 62C85.801 62 86 59.975 86 57.5C86 55.025 86.338 53.003 86.75 53.007C87.162 53.01 88.85 53.907 90.5 55C92.15 56.093 93.838 56.99 94.25 56.993C94.662 56.997 95 54.931 95 52.401V47.802L98.655 49.959C102.861 52.44 103.8 51.725 103.19 46.504L102.779 42.982L95.357 47.079C91.275 49.332 81.822 54.736 74.349 59.088C66.877 63.44 60.479 66.99 60.131 66.977C58.685 66.926 10.949 38.416 10.775 37.5C10.614 36.654 17.815 32.165 36 21.775C37.925 20.675 44.042 17.126 49.593 13.888C55.144 10.65 59.974 8 60.326 8C60.679 8 71.774 14.314 84.983 22.031C98.191 29.748 109.674 36.321 110.499 36.638C111.7 37.099 112 36.292 112 32.607C112 30.073 111.662 28.002 111.25 28.004C110.838 28.006 109.027 28.906 107.226 30.004C105.425 31.102 103.738 32 103.476 32C103.214 32 103 29.975 103 27.5C103 25.025 102.716 23 102.368 23C102.02 23 100.22 23.937 98.368 25.082L95 27.163V22.582C95 20.062 94.662 18.002 94.25 18.004C93.838 18.006 92.027 18.906 90.226 20.004C88.425 21.102 86.738 22 86.476 22C86.214 22 86 19.975 86 17.5C86 15.025 85.801 13 85.557 13C85.314 13 83.514 13.944 81.557 15.099L78 17.198V12.599C78 10.069 77.662 8.002 77.25 8.004C76.838 8.006 75.027 8.906 73.226 10.004C71.425 11.102 69.738 12 69.476 12C69.214 12 69 9.975 69 7.5C69 5.025 68.716 3 68.368 3C68.02 3 66.172 3.966 64.261 5.147L60.787 7.295L56.393 5.16L52 3.026V7.513ZM172 7.599V12.198L168.443 10.099C166.486 8.944 164.461 8 163.943 8C163.424 8 163 10.062 163 12.582V17.163L159.632 15.082C157.78 13.937 155.98 13 155.632 13C155.284 13 155 15.025 155 17.5C155 19.975 154.786 22 154.524 22C154.262 22 152.575 21.102 150.774 20.004C148.973 18.906 147.162 18.006 146.75 18.004C146.338 18.002 146 20.034 146 22.52V27.041L142.04 25.02C139.862 23.909 137.949 23 137.79 23C137.243 23 137.656 30.989 138.233 31.566C138.55 31.883 142.837 29.748 147.76 26.821C152.683 23.895 161.933 18.575 168.317 15C174.701 11.425 179.941 8.156 179.962 7.735C180.002 6.928 174.031 3.01 172.75 3.004C172.338 3.002 172 5.069 172 7.599ZM184.572 5.388L180.645 7.765L184.072 9.60201C185.958 10.612 188.255 11.902 189.177 12.469C190.1 13.036 193.925 15.257 197.677 17.404C208.646 23.68 228.348 35.24 230.261 36.523C232.076 37.74 226.813 41.061 192.207 60.538C186.545 63.725 181.692 66.69 181.421 67.127C181 67.809 187.915 72 189.46 72C189.757 72 190 69.966 190 67.48V62.959L194 65L198 67.041V62.52C198 60.034 198.214 58 198.476 58C198.738 58 200.425 58.898 202.226 59.996C204.027 61.094 205.838 61.994 206.25 61.996C206.662 61.998 207 59.931 207 57.401V52.802L210.557 54.901C212.514 56.056 214.314 57 214.557 57C214.801 57 215 54.975 215 52.5C215 50.025 215.338 48.003 215.75 48.007C216.162 48.01 217.85 48.907 219.5 50C221.15 51.093 222.838 51.99 223.25 51.993C223.662 51.997 224 49.966 224 47.48V42.959L228 45C232.214 47.15 232.316 47.093 232.033 42.773C231.741 38.323 232.767 37.808 237.057 40.253L241 42.5L245.016 40.211C249.564 37.619 250.531 38.39 249.661 43.913C249.393 45.611 249.378 47 249.627 47C249.876 47 251.862 46.091 254.04 44.98L258 42.959V47.48C258 49.966 258.337 51.997 258.75 51.993C259.163 51.99 260.85 51.093 262.5 50C264.15 48.907 265.837 48.01 266.25 48.007C266.663 48.003 267 50.025 267 52.5C267 54.975 267.199 57 267.443 57C267.686 57 269.486 56.056 271.443 54.901L275 52.802V57.401C275 59.931 275.337 61.998 275.75 61.996C276.163 61.994 277.973 61.094 279.774 59.996C281.575 58.898 283.262 58 283.524 58C283.786 58 284 60.025 284 62.5C284 64.975 284.214 67 284.476 67C284.738 67 286.425 66.102 288.226 65.004C292.747 62.247 293.194 62.436 292.867 66.957C292.71 69.134 292.844 71.177 293.165 71.498C293.485 71.819 295.408 71.102 297.438 69.904C299.687 68.577 300.768 67.368 300.206 66.806C299.699 66.299 295.199 63.548 290.206 60.692C253.777 39.858 250.166 37.572 251.847 36.411C253.456 35.3 269.106 26.188 277.85 21.27C280.242 19.925 284.292 17.551 286.85 15.995C289.407 14.439 293.827 11.948 296.67 10.46L301.841 7.754L309.456 12.377C313.644 14.92 317.254 17 317.477 17C317.7 17 323.422 20.292 330.191 24.316C336.961 28.339 344.637 32.858 347.25 34.358C349.863 35.857 352 37.246 352 37.443C352 37.813 347.252 40.803 340.894 44.438C338.91 45.572 329.359 51 319.669 56.5C309.978 62 302.039 66.793 302.025 67.151C302.002 67.76 308.588 72 309.557 72C309.801 72 310 69.975 310 67.5C310 65.025 310.214 63 310.476 63C310.738 63 312.425 63.898 314.226 64.996C316.027 66.094 317.837 66.994 318.25 66.996C318.663 66.998 319 64.931 319 62.401V57.802L322.557 59.901C324.514 61.056 326.314 62 326.557 62C326.801 62 327 59.975 327 57.5C327 55.025 327.337 53.003 327.75 53.007C328.163 53.01 329.85 53.907 331.5 55C333.15 56.093 334.837 56.99 335.25 56.993C335.663 56.997 336 54.931 336 52.401V47.802L339.577 49.913C343.879 52.451 344.859 52.043 344.378 47.914C343.847 43.348 344.758 42.687 348.447 44.967C350.256 46.085 352.02 47 352.368 47C352.716 47 353 44.981 353 42.513V38.026L357.32 40.125L361.641 42.224L365.82 40.092L370 37.959V42.48C370 44.966 370.214 47 370.476 47C370.738 47 372.425 46.102 374.226 45.004C376.027 43.906 377.837 43.006 378.25 43.004C378.663 43.002 379 45.025 379 47.5C379 49.975 379.199 52 379.443 52C379.686 52 381.486 51.056 383.443 49.901L387 47.802V52.401C387 54.931 387.337 56.997 387.75 56.993C388.163 56.99 389.85 56.093 391.5 55C393.15 53.907 394.837 53.01 395.25 53.007C395.663 53.003 396 55.025 396 57.5C396 59.975 396.214 62 396.476 62C396.738 62 398.425 61.102 400.226 60.004C402.027 58.906 403.728 58.006 404.007 58.004C404.286 58.002 404.353 60.025 404.157 62.5C403.75 67.612 404.901 68.206 409 65C412.577 62.202 413 62.466 413 67.5C413 69.975 413.248 72 413.552 72C413.855 72 415.846 70.998 417.974 69.772L421.845 67.545L425.809 69.772C427.989 70.998 430.049 72 430.386 72C430.724 72 431 69.931 431 67.401V62.802L434.557 64.901C436.514 66.056 438.314 67 438.557 67C438.801 67 439 64.975 439 62.5C439 60.025 439.337 58.003 439.75 58.007C440.163 58.01 441.85 58.907 443.5 60C445.15 61.093 446.837 61.99 447.25 61.993C447.663 61.997 448 59.966 448 57.48V52.959L452 55L456 57.041V52.52C456 50.034 456.337 48.003 456.75 48.007C457.163 48.01 458.85 48.907 460.5 50C462.15 51.093 463.837 51.99 464.25 51.993C464.663 51.997 465 49.975 465 47.5C465 45.025 465.214 43 465.476 43C465.738 43 467.425 43.898 469.226 44.996C471.027 46.094 472.837 46.994 473.25 46.996C474.314 47.002 474.185 39.233 473.111 38.568C472.621 38.266 460.917 44.571 447.101 52.579L421.982 67.14L416.741 64.244C410.669 60.888 389.212 48.476 387 47.04C386.175 46.504 382.2 44.199 378.166 41.917C374.133 39.635 371.208 37.404 371.666 36.961C372.409 36.242 395.289 22.793 406.947 16.222C409.394 14.843 413.666 12.376 416.442 10.739L421.49 7.763L425.995 10.096C428.473 11.38 432.075 13.4 434 14.585C435.925 15.771 442 19.347 447.5 22.533C453 25.718 460.792 30.284 464.816 32.68C468.839 35.076 472.522 36.795 473 36.5C473.75 36.036 473.266 29.153 472.411 28.136C472.243 27.936 470.507 28.76 468.553 29.967L465 32.163V27.582C465 25.062 464.663 23.002 464.25 23.004C463.837 23.006 462.027 23.906 460.226 25.004C458.425 26.102 456.738 27 456.476 27C456.214 27 456 24.975 456 22.5C456 20.025 455.716 18 455.368 18C455.02 18 453.22 18.937 451.368 20.082L448 22.163V17.582C448 15.062 447.663 13.002 447.25 13.004C446.837 13.006 445.027 13.906 443.226 15.004C441.425 16.102 439.738 17 439.476 17C439.214 17 439 14.975 439 12.5C439 10.025 438.716 8 438.368 8C438.02 8 436.22 8.937 434.368 10.082L431 12.163V7.582C431 5.062 430.757 3 430.46 3C430.163 3 428.069 3.94401 425.807 5.09801L421.694 7.19701L417.961 5.09801C415.908 3.94401 413.951 3 413.614 3C413.276 3 413 5.069 413 7.599V12.198L409.443 10.099C407.486 8.944 405.461 8 404.943 8C404.424 8 404 10.062 404 12.582V17.163L400.632 15.082C398.78 13.937 396.98 13 396.632 13C396.284 13 396 15.025 396 17.5C396 19.975 395.786 22 395.524 22C395.262 22 393.575 21.102 391.774 20.004C389.973 18.906 388.163 18.006 387.75 18.004C387.337 18.002 387 20.062 387 22.582V27.163L383.447 24.967C381.493 23.76 379.606 23.06 379.254 23.413C378.901 23.766 378.718 25.842 378.847 28.027C378.976 30.212 378.849 32 378.565 32C378.281 32 376.575 31.102 374.774 30.004C372.973 28.906 371.163 28.006 370.75 28.004C370.337 28.002 370 30.044 370 32.542V37.084L365.725 34.579L361.451 32.074L357.225 34.594L353 37.113V32.557C353 30.051 352.663 28.002 352.25 28.004C351.837 28.006 350.027 28.906 348.226 30.004C346.425 31.102 344.738 32 344.476 32C344.214 32 344 29.975 344 27.5C344 25.025 343.716 23 343.368 23C343.02 23 341.22 23.937 339.368 25.082L336 27.163V22.582C336 20.062 335.663 18.003 335.25 18.007C334.837 18.01 333.15 18.907 331.5 20C329.85 21.093 328.163 21.99 327.75 21.993C327.337 21.997 327 19.975 327 17.5C327 15.025 326.801 13 326.557 13C326.314 13 324.514 13.944 322.557 15.099L319 17.198V12.599C319 10.069 318.663 8.002 318.25 8.004C317.837 8.006 316.027 8.906 314.226 10.004C312.425 11.102 310.738 12 310.476 12C310.214 12 310 9.975 310 7.5C310 5.025 309.724 3 309.386 3C309.049 3 307.063 3.96099 304.973 5.13499L301.174 7.271L297.534 5.021C295.533 3.784 293.665 3.002 293.383 3.283C293.102 3.564 292.841 5.303 292.804 7.147C292.706 11.902 292.322 12.167 288.714 9.967C286.946 8.889 285.163 8.006 284.75 8.004C284.337 8.002 284 10.025 284 12.5C284 14.975 283.786 17 283.524 17C283.262 17 281.575 16.102 279.774 15.004C277.973 13.906 276.163 13.006 275.75 13.004C275.337 13.002 275 15.062 275 17.582V22.163L271.632 20.082C269.78 18.937 267.98 18 267.632 18C267.284 18 267 20.025 267 22.5C267 24.975 266.786 27 266.524 27C266.262 27 264.575 26.102 262.774 25.004C260.973 23.906 259.163 23.006 258.75 23.004C258.337 23.002 258 25.069 258 27.599V32.198L254.443 30.099C249.714 27.309 249.086 27.439 249.661 31.087C250.507 36.457 249.617 37.172 245.139 34.719L241.173 32.547L237.337 34.497C235.227 35.57 233.162 36.61 232.75 36.807C232.338 37.005 232 35.104 232 32.583C232 30.063 231.716 28 231.368 28C231.02 28 229.22 28.937 227.368 30.082L224 32.163V27.582C224 25.062 223.662 23.002 223.25 23.004C222.838 23.006 221.027 23.906 219.226 25.004C217.425 26.102 215.738 27 215.476 27C215.214 27 215 24.975 215 22.5C215 20.025 214.801 18 214.557 18C214.314 18 212.514 18.944 210.557 20.099L207 22.198V17.599C207 15.069 206.662 13.002 206.25 13.004C205.838 13.006 204.027 13.906 202.226 15.004C200.425 16.102 198.738 17 198.476 17C198.214 17 198 14.931 198 12.401V7.802L194.443 9.901C192.486 11.056 190.686 12 190.443 12C190.199 12 190 9.975 190 7.5C190 5.025 189.662 3.002 189.25 3.005C188.838 3.008 186.733 4.08 184.572 5.388ZM39.5 24.608C28.5 30.966 19.133 36.519 18.685 36.949C17.992 37.613 54.395 59.679 59.266 61.549C60.313 61.95 63.649 60.553 68.218 57.798C72.223 55.383 81.457 50.053 88.738 45.953C96.019 41.854 101.832 38.053 101.657 37.506C101.481 36.96 97.774 34.444 93.419 31.914C66.617 16.35 60.719 13.003 60.143 13.024C59.789 13.037 50.5 18.25 39.5 24.608ZM167 20.568C160.125 24.63 151.267 29.76 147.315 31.967C143.363 34.174 139.87 36.401 139.552 36.915C138.607 38.445 179.552 62.386 181.701 61.561C183.613 60.828 221.339 38.993 222.312 38.057C223.284 37.122 182.543 12.866 180.378 13.091C179.895 13.141 173.875 16.506 167 20.568ZM280.5 24.608C269.5 30.966 260.134 36.519 259.686 36.948C259.029 37.578 281.085 51.002 298 60.269L301.5 62.186L322.767 49.944C334.464 43.21 343.914 37.597 343.767 37.468C343.62 37.34 338.325 34.204 332 30.499C325.675 26.794 316.391 21.341 311.37 18.381C306.348 15.422 301.848 13.011 301.37 13.024C300.891 13.037 291.5 18.25 280.5 24.608ZM418.473 14.365C417.388 15.115 408.85 20.108 399.5 25.46C390.15 30.812 381.886 35.778 381.136 36.496C380 37.582 381.422 38.761 389.636 43.543C395.061 46.702 404.396 52.173 410.38 55.7C416.365 59.228 421.877 61.878 422.63 61.589C424.584 60.839 464 37.904 464 37.517C464 37.34 458.038 33.715 450.75 29.461C443.462 25.206 434.181 19.762 430.123 17.363C421.995 12.555 421.334 12.385 418.473 14.365ZM40.659 25.856C30.305 31.826 21.758 36.993 21.667 37.337C21.489 38.004 58.958 59.991 60.281 59.997C60.71 59.998 64.085 58.266 67.781 56.146C93.493 41.398 98.075 38.688 98.526 37.957C98.805 37.506 94.639 34.573 89.267 31.439C83.895 28.306 75.411 23.325 70.413 20.371C65.415 17.417 60.912 15 60.405 15C59.899 15 51.013 19.885 40.659 25.856ZM161.5 25.606C151.6 31.423 143.133 36.531 142.685 36.956C142.236 37.382 150.52 42.791 161.092 48.976L180.314 60.221L183.907 58.508C190.771 55.237 220.094 37.761 219.581 37.248C218.328 35.994 181.457 15.002 180.531 15.015C179.964 15.023 171.4 19.789 161.5 25.606ZM280.677 26.257L261.854 37.305L264.677 39.014C272.716 43.879 290.23 54.095 295.506 56.996L301.513 60.299L321.211 48.938C332.045 42.689 340.817 37.515 340.705 37.44C334.719 33.448 301.918 15.032 300.925 15.105C300.141 15.163 291.03 20.181 280.677 26.257ZM414.646 18.535C411.427 20.476 403.21 25.25 396.387 29.143C389.564 33.036 383.762 36.576 383.495 37.008C383.227 37.441 391.637 42.827 402.183 48.977C419.615 59.142 421.584 60.055 423.86 59.018C426.746 57.703 459.092 39.031 460.316 37.973C460.765 37.585 457.39 35.104 452.816 32.459C448.242 29.814 439.625 24.804 433.667 21.325C427.708 17.846 422.308 15.001 421.667 15.003C421.025 15.004 417.866 16.594 414.646 18.535ZM45.073 28.591C37.138 33.227 30.513 37.153 30.351 37.316C30.189 37.478 32.406 38.982 35.278 40.658C38.15 42.335 44.933 46.287 50.351 49.442L60.201 55.178L74.851 46.717C82.908 42.064 89.434 37.894 89.353 37.451C89.196 36.588 61.208 19.946 60.139 20.08C59.788 20.125 53.008 23.954 45.073 28.591ZM166.5 28.036C158.816 32.455 152.157 36.443 151.703 36.897C151.248 37.352 156.642 41.095 163.688 45.217C182.82 56.406 180.312 55.699 186.843 51.742C189.954 49.856 196.691 45.943 201.813 43.045C210.084 38.367 210.924 37.64 209.313 36.554C206.354 34.557 181.369 20 180.902 20C180.665 20 174.185 23.616 166.5 28.036ZM285.709 28.686C277.574 33.397 271.049 37.364 271.209 37.501C271.369 37.638 278.198 41.662 286.383 46.443L301.267 55.136L315.734 46.818C323.691 42.243 330.202 38.085 330.202 37.578C330.203 36.656 302.547 19.947 301.208 20.06C300.819 20.093 293.844 23.974 285.709 28.686ZM408 27.529C401.125 31.563 394.65 35.478 393.61 36.23C391.88 37.482 392.935 38.304 406.11 45.963C414.025 50.564 420.819 54.494 421.209 54.698C421.809 55.01 444.88 42.14 450.261 38.491C451.792 37.453 450.079 36.167 437.142 28.648C428.958 23.892 421.866 20.044 421.381 20.097C420.896 20.15 414.875 23.495 408 27.529ZM46.5 29.609C39.35 33.778 33.423 37.262 33.328 37.35C33.233 37.438 39.266 41.076 46.734 45.434C59.857 53.092 60.399 53.307 62.906 51.848C64.333 51.018 70 47.746 75.5 44.575C81 41.405 85.858 38.473 86.296 38.06C87.022 37.374 62.061 21.982 60.274 22.014C59.848 22.022 53.65 25.439 46.5 29.609ZM167.293 29.392C160.579 33.346 154.823 36.843 154.502 37.164C153.991 37.676 179.333 53 180.689 53C180.977 53 187.243 49.571 194.614 45.381L208.015 37.761L203.758 35.106C195.275 29.817 181.222 22.002 180.371 22.102C179.892 22.158 174.007 25.438 167.293 29.392ZM296.5 24.401C294.3 25.679 288.767 28.888 284.204 31.532C279.641 34.176 275.691 36.691 275.426 37.12C275.009 37.795 283.222 42.955 297.5 50.987L301.5 53.237L314.75 45.542C322.038 41.309 328 37.682 328 37.481C328 37.065 311.054 27 310.353 27C310.1 27 308.238 25.875 306.215 24.5C301.768 21.478 301.537 21.476 296.5 24.401ZM407.624 29.727L394.747 37.297L398.624 39.686C400.756 40.999 406.851 44.559 412.168 47.596L421.836 53.118L435.388 45.363C442.842 41.097 448.842 37.515 448.72 37.401C447.265 36.041 422.494 22.021 421.649 22.079C421.017 22.122 414.706 25.564 407.624 29.727ZM129 32.595V37.19L124.716 34.68L120.433 32.169L112.966 36.686C108.86 39.171 105.13 41.551 104.677 41.975C103.951 42.655 109.736 47 111.368 47C111.716 47 112 44.966 112 42.48V37.959L115.96 39.98C120.835 42.467 121.844 42.469 125 40C128.577 37.202 129 37.466 129 42.5C129 44.975 129.338 46.998 129.75 46.996C130.162 46.994 131.926 46.123 133.668 45.061C137.271 42.864 138.016 43.608 137.412 48.8C136.974 52.562 137.674 52.715 142.443 49.901L146 47.802V52.401C146 54.931 146.338 56.997 146.75 56.993C147.162 56.99 148.85 56.093 150.5 55C152.15 53.907 153.838 53.01 154.25 53.007C154.662 53.003 155 55.025 155 57.5C155 59.975 155.199 62 155.443 62C155.686 62 157.486 61.056 159.443 59.901L163 57.802V62.401C163 64.931 163.338 66.998 163.75 66.996C164.162 66.994 165.973 66.094 167.774 64.996C169.575 63.898 171.262 63 171.524 63C171.786 63 172 65.025 172 67.5C172 69.975 172.284 72 172.632 72C174.047 72 179.979 67.775 179.546 67.075C179.29 66.66 172.212 62.311 163.818 57.41C155.424 52.51 147.787 48.05 146.846 47.5C145.906 46.95 141.627 44.519 137.337 42.097C130.502 38.239 129.766 37.559 131.387 36.597C132.405 35.994 134.181 34.765 135.334 33.866C137.421 32.24 137.415 32.223 133.965 30.12C132.059 28.958 130.162 28.006 129.75 28.004C129.338 28.002 129 30.068 129 32.595ZM476.713 35.302L472.927 37.595L476.713 39.521C478.796 40.581 480.837 41.61 481.25 41.807C481.663 42.005 482 40.104 482 37.583C482 35.063 481.663 33.002 481.25 33.005C480.837 33.008 478.796 34.042 476.713 35.302ZM105.04 63.977C96.624 68.863 89.257 73.343 88.669 73.931C87.91 74.69 97.144 75 120.5 75C140.255 75 153.02 74.637 152.45 74.091C151.758 73.43 127.292 58.936 120.92 55.413C120.602 55.237 113.455 59.091 105.04 63.977ZM225 64.149C216.475 69.111 209.072 73.582 208.55 74.085C207.975 74.639 220.594 75 240.514 75C269.06 75 273.234 74.81 271.964 73.571C270.701 72.338 241.218 54.89 240.692 55.064C240.587 55.099 233.525 59.187 225 64.149ZM351.921 60.542C346.739 63.564 339.47 67.716 335.767 69.768C332.064 71.821 329.026 73.837 329.017 74.25C329.008 74.663 343.625 75 361.5 75C379.375 75 394 74.819 394 74.598C394 74.377 388.038 70.713 380.75 66.457C373.462 62.201 366.114 57.892 364.421 56.883L361.341 55.048L351.921 60.542ZM106.5 64.836L93.5 72.5L107.31 72.779C114.905 72.932 126.989 72.932 134.162 72.779L147.204 72.5L134.852 65.3C128.058 61.339 121.825 57.89 121 57.635C120.175 57.38 113.65 60.62 106.5 64.836ZM227 65L213.5 72.965L240.917 72.983C255.996 72.992 268.146 72.842 267.917 72.649C267.227 72.067 241.054 56.999 240.767 57.017C240.62 57.027 234.425 60.619 227 65ZM347.018 65.09L333.537 73H360.935C376.004 73 388.146 72.821 387.917 72.602C386.959 71.687 361.516 57.008 361.03 57.09C360.739 57.139 354.433 60.739 347.018 65.09Z" fill="black" fill-opacity="0.1"/>
</svg>
