<svg width="55" height="41" viewBox="0 0 55 41" fill="none" xmlns="http://www.w3.org/2000/svg">
<path d="M29.4133 35.2279C30.6114 27.1412 39.2612 16.3201 54.2278 11.6499C50.1943 26.4429 39.6092 35.2369 29.4133 35.2279Z" fill="#FFDC53" fill-opacity="0.8" stroke="white" stroke-opacity="0.8"/>
<path d="M29.8468 35.1105C21.6795 34.7577 10.0195 27.2771 3.82181 12.8758C18.9534 15.3529 28.7981 24.9686 29.8468 35.1105Z" fill="#3D8000" fill-opacity="0.8" stroke="white" stroke-opacity="0.8"/>
<path d="M29.432 35.2534C21.939 31.9849 13.7527 20.809 13.1535 5.14215C26.3796 12.8993 32.1037 25.4137 29.432 35.2534Z" fill="#046E7C" fill-opacity="0.8" stroke="white" stroke-opacity="0.8"/>
<path d="M29.353 35.2214C22.8995 30.2033 17.7272 17.3517 21.0163 2.02233C31.9166 12.8059 34.3723 26.3465 29.353 35.2214Z" fill="#004CAE" fill-opacity="0.8" stroke="white" stroke-opacity="0.8"/>
<path d="M29.4344 35.1225C28.0812 27.0604 32.9739 14.0997 45.7718 5.04312C46.4951 20.3591 39.1366 31.9879 29.4344 35.1225Z" fill="#FFA64D" fill-opacity="0.8" stroke="white" stroke-opacity="0.8"/>
<path d="M29.4291 35.3828C26.3492 27.8103 28.2958 14.0943 38.8089 2.46325C42.857 17.2523 38.2134 30.2066 29.4291 35.3828Z" fill="#E24A49" fill-opacity="0.8" stroke="white" stroke-opacity="0.8"/>
<path d="M29.4017 35.2972C24.4668 28.7798 22.7971 15.0274 29.9416 1.07164C37.6795 14.309 36.547 28.0238 29.4017 35.2972Z" fill="#D349DD" fill-opacity="0.8" stroke="white" stroke-opacity="0.8"/>
</svg>
