<svg width="493" height="269" viewBox="0 0 493 269" fill="none" xmlns="http://www.w3.org/2000/svg">
<rect width="42.3626" height="98.3905" transform="matrix(-1 -1.74846e-07 -1.74846e-07 1 380.72 149.902)" fill="#FF8922" stroke="white" stroke-width="2"/>
<rect width="42.3626" height="98.3905" transform="matrix(-1 -1.74846e-07 -1.74846e-07 1 338.357 149.902)" fill="#FF8922" stroke="white" stroke-width="2"/>
<rect x="152.685" y="149.902" width="42.3626" height="98.3905" fill="#FF8922" stroke="white" stroke-width="2"/>
<path d="M149.269 110.957C146.918 118.01 149.269 126.216 152.002 130.088L194.365 130.088C197.781 130.088 201.197 110.957 197.097 106.857C193.431 103.19 179.105 90.2309 173.183 84.3092C171.817 93.1917 154.052 96.608 149.269 110.957Z" fill="#FF8922" stroke="white" stroke-width="2" stroke-linecap="round"/>
<rect x="152.685" y="130.771" width="42.3626" height="19.1315" fill="#FF8922" stroke="white" stroke-width="2"/>
<path d="M191.632 53.5618C214.478 30.7168 235.361 22.1315 246.293 3.00001C257.225 22.1315 276.244 30.7168 299.09 53.5618C303.873 58.3447 316.172 89.7749 291.574 110.956L246.293 110.956L199.147 110.956C174.55 89.7749 186.849 58.3446 191.632 53.5618Z" fill="#FF8922" stroke="white" stroke-width="2" stroke-linecap="round"/>
<rect x="110.323" y="130.771" width="42.3626" height="19.1315" fill="#FF8922" stroke="white" stroke-width="2"/>
<rect x="110.323" y="149.902" width="42.3626" height="98.3905" fill="#FF8922" stroke="white" stroke-width="2"/>
<rect x="1" y="248.293" width="490.586" height="19.1315" fill="#FF8922" stroke="white" stroke-width="2"/>
<rect x="72.0593" y="88.4086" width="15.0319" height="42.3626" fill="#FF8922" stroke="white" stroke-width="2"/>
<rect x="66.5939" y="130.771" width="24.5976" height="6.83267" rx="2" fill="#FF8922" stroke="white" stroke-width="2"/>
<rect x="63.8606" y="193.632" width="28.6972" height="6.83267" rx="2" fill="#FF8922" stroke="white" stroke-width="2"/>
<rect x="70.6932" y="137.604" width="17.7649" height="57.3944" fill="#FF8922" stroke="white" stroke-width="2"/>
<rect x="70.6932" y="200.464" width="17.7649" height="47.8287" fill="#FF8922" stroke="white" stroke-width="2"/>
<rect x="24.8167" y="50.4016" width="18.6109" height="52.4489" fill="#FF8922" stroke="white" stroke-width="2"/>
<rect x="18.0486" y="102.851" width="30.4542" height="8.4595" rx="2" fill="#FF8922" stroke="white" stroke-width="2"/>
<rect x="14.665" y="180.678" width="35.5299" height="8.4595" rx="2" fill="#FF8922" stroke="white" stroke-width="2"/>
<rect x="23.124" y="111.31" width="21.9947" height="71.0598" fill="#FF8922" stroke="white" stroke-width="2"/>
<rect x="23.124" y="189.138" width="21.9947" height="59.2165" fill="#FF8922" stroke="white" stroke-width="2"/>
<path d="M149.269 110.957C146.918 118.01 149.269 126.216 152.002 130.088L194.365 130.088C197.781 130.088 201.197 110.957 197.097 106.857C193.431 103.19 179.105 90.2309 173.183 84.3092C171.817 93.1917 154.052 96.608 149.269 110.957Z" fill="#FF8922" stroke="white" stroke-width="2" stroke-linecap="round"/>
<rect x="152.685" y="130.771" width="42.3626" height="19.1315" fill="#FF8922" stroke="white" stroke-width="2"/>
<rect x="110.323" y="130.771" width="42.3626" height="19.1315" fill="#FF8922" stroke="white" stroke-width="2"/>
<rect x="110.323" y="149.902" width="42.3626" height="98.3905" fill="#FF8922" stroke="white" stroke-width="2"/>
<rect x="1" y="248.293" width="490.586" height="19.1315" fill="#FF8922" stroke="white" stroke-width="2"/>
<rect x="72.0594" y="88.4086" width="15.0319" height="42.3626" fill="#FF8922" stroke="white" stroke-width="2"/>
<rect x="66.5939" y="130.77" width="24.5976" height="6.83267" rx="2" fill="#FF8922" stroke="white" stroke-width="2"/>
<rect x="63.8606" y="193.632" width="28.6972" height="6.83267" rx="2" fill="#FF8922" stroke="white" stroke-width="2"/>
<rect x="70.6932" y="137.604" width="17.7649" height="57.3944" fill="#FF8922" stroke="white" stroke-width="2"/>
<rect x="70.6932" y="200.464" width="17.7649" height="47.8287" fill="#FF8922" stroke="white" stroke-width="2"/>
<path d="M79.5001 76C84.1944 76.0001 88.0001 80.9641 88.0001 87.0869C88.0001 87.5032 87.9807 87.914 87.9464 88.3184H71.0538C71.0196 87.914 71.0001 87.5032 71.0001 87.0869C71.0001 80.964 74.8058 76 79.5001 76Z" fill="#FF8922"/>
<rect x="24.8167" y="50.4016" width="18.6109" height="52.4489" fill="#FF8922" stroke="white" stroke-width="2"/>
<rect x="18.0486" y="102.851" width="30.4542" height="8.4595" rx="2" fill="#FF8922" stroke="white" stroke-width="2"/>
<rect x="14.665" y="180.678" width="35.5299" height="8.4595" rx="2" fill="#FF8922" stroke="white" stroke-width="2"/>
<rect x="23.124" y="111.31" width="21.9947" height="71.0598" fill="#FF8922" stroke="white" stroke-width="2"/>
<rect x="23.124" y="189.138" width="21.9947" height="59.2165" fill="#FF8922" stroke="white" stroke-width="2"/>
<path d="M341.774 110.957C344.125 118.01 341.774 126.216 339.041 130.088L296.678 130.088C293.262 130.088 289.846 110.957 293.945 106.857C297.612 103.19 311.938 90.2308 317.86 84.3092C319.226 93.1917 336.991 96.608 341.774 110.957Z" fill="#FF8922" stroke="white" stroke-width="2" stroke-linecap="round"/>
<rect width="42.3626" height="19.1315" transform="matrix(-1 -1.74846e-07 -1.74846e-07 1 338.357 130.771)" fill="#FF8922" stroke="white" stroke-width="2"/>
<rect width="42.3626" height="19.1315" transform="matrix(-1 -1.74846e-07 -1.74846e-07 1 380.72 130.771)" fill="#FF8922" stroke="white" stroke-width="2"/>
<rect width="15.0319" height="42.3626" transform="matrix(-1 -1.74846e-07 -1.74846e-07 1 418.982 88.4086)" fill="#FF8922" stroke="white" stroke-width="2"/>
<rect width="24.5976" height="6.83267" rx="2" transform="matrix(-1 -1.74846e-07 -1.74846e-07 1 424.449 130.771)" fill="#FF8922" stroke="white" stroke-width="2"/>
<rect width="28.6972" height="6.83267" rx="2" transform="matrix(-1 -1.74846e-07 -1.74846e-07 1 427.182 193.632)" fill="#FF8922" stroke="white" stroke-width="2"/>
<rect width="17.7649" height="57.3944" transform="matrix(-1 -1.74846e-07 -1.74846e-07 1 420.349 137.604)" fill="#FF8922" stroke="white" stroke-width="2"/>
<rect width="17.7649" height="47.8287" transform="matrix(-1 -1.74846e-07 -1.74846e-07 1 420.349 200.464)" fill="#FF8922" stroke="white" stroke-width="2"/>
<rect width="18.6109" height="52.4489" transform="matrix(-1 -1.74846e-07 -1.74846e-07 1 466.226 50.4016)" fill="#FF8922" stroke="white" stroke-width="2"/>
<rect width="30.4542" height="8.4595" rx="2" transform="matrix(-1 -1.74846e-07 -1.74846e-07 1 472.994 102.851)" fill="#FF8922" stroke="white" stroke-width="2"/>
<rect width="35.5299" height="8.4595" rx="2" transform="matrix(-1 -1.74846e-07 -1.74846e-07 1 476.378 180.678)" fill="#FF8922" stroke="white" stroke-width="2"/>
<rect width="21.9947" height="71.0598" transform="matrix(-1 -1.74846e-07 -1.74846e-07 1 467.918 111.31)" fill="#FF8922" stroke="white" stroke-width="2"/>
<rect width="21.9947" height="59.2165" transform="matrix(-1 -1.74846e-07 -1.74846e-07 1 467.918 189.138)" fill="#FF8922" stroke="white" stroke-width="2"/>
<path d="M341.774 110.957C344.125 118.01 341.774 126.216 339.041 130.088L296.678 130.088C293.262 130.088 289.846 110.957 293.945 106.857C297.612 103.19 311.938 90.2308 317.86 84.3092C319.226 93.1917 336.991 96.608 341.774 110.957Z" fill="#FF8922" stroke="white" stroke-width="2" stroke-linecap="round"/>
<rect width="42.3626" height="19.1315" transform="matrix(-1 -1.74846e-07 -1.74846e-07 1 338.357 130.771)" fill="#FF8922" stroke="white" stroke-width="2"/>
<rect width="42.3626" height="19.1315" transform="matrix(-1 -1.74846e-07 -1.74846e-07 1 380.72 130.771)" fill="#FF8922" stroke="white" stroke-width="2"/>
<rect width="15.0319" height="42.3626" transform="matrix(-1 -1.74846e-07 -1.74846e-07 1 418.982 88.4086)" fill="#FF8922" stroke="white" stroke-width="2"/>
<rect width="24.5976" height="6.83267" rx="2" transform="matrix(-1 -1.74846e-07 -1.74846e-07 1 424.449 130.771)" fill="#FF8922" stroke="white" stroke-width="2"/>
<rect width="28.6972" height="6.83267" rx="2" transform="matrix(-1 -1.74846e-07 -1.74846e-07 1 427.182 193.632)" fill="#FF8922" stroke="white" stroke-width="2"/>
<rect width="17.7649" height="57.3944" transform="matrix(-1 -1.74846e-07 -1.74846e-07 1 420.349 137.604)" fill="#FF8922" stroke="white" stroke-width="2"/>
<rect width="17.7649" height="47.8287" transform="matrix(-1 -1.74846e-07 -1.74846e-07 1 420.349 200.464)" fill="#FF8922" stroke="white" stroke-width="2"/>
<rect width="18.6109" height="52.4489" transform="matrix(-1 -1.74846e-07 -1.74846e-07 1 466.226 50.4016)" fill="#FF8922" stroke="white" stroke-width="2"/>
<path d="M456.851 35C462.567 35.0003 467.2 41.0443 467.2 48.5C467.2 49.0071 467.177 49.5074 467.135 50H446.565C446.524 49.5074 446.5 49.0071 446.5 48.5C446.5 41.0442 451.134 35 456.851 35Z" fill="#FF8922"/>
<rect width="30.4542" height="8.4595" rx="2" transform="matrix(-1 -1.74846e-07 -1.74846e-07 1 472.994 102.851)" fill="#FF8922" stroke="white" stroke-width="2"/>
<rect width="35.5299" height="8.4595" rx="2" transform="matrix(-1 -1.74846e-07 -1.74846e-07 1 476.378 180.678)" fill="#FF8922" stroke="white" stroke-width="2"/>
<rect width="21.9947" height="71.0598" transform="matrix(-1 -1.74846e-07 -1.74846e-07 1 467.918 111.31)" fill="#FF8922" stroke="white" stroke-width="2"/>
<rect width="21.9947" height="59.2165" transform="matrix(-1 -1.74846e-07 -1.74846e-07 1 467.918 189.138)" fill="#FF8922" stroke="white" stroke-width="2"/>
<line x1="216.912" y1="32.7468" x2="274.307" y2="32.7468" stroke="white" stroke-width="2"/>
<path d="M162.251 171.083L162.251 195.681L184.799 195.681L184.799 169.034C180.426 165.207 175.689 163.34 173.867 162.884C166.214 166.164 162.935 169.717 162.251 171.083Z" fill="#FF8922" stroke="white" stroke-width="2" stroke-linecap="round"/>
<path d="M162.251 212.763L162.251 237.361L184.799 237.361L184.799 210.713C180.426 206.887 175.689 205.019 173.867 204.564C166.214 207.844 162.935 211.397 162.251 212.763Z" fill="#FF8922" stroke="white" stroke-width="2" stroke-linecap="round"/>
<path d="M195.048 130.088L195.048 248.293L221.012 248.293C221.468 229.389 222.379 189.122 222.379 179.283C222.379 169.444 237.411 168.351 248.343 161.518C253.809 165.618 270.891 168.351 277.724 179.283L277.724 246.926L294.805 246.926L294.805 130.088L292.072 125.305L197.781 125.305L195.048 130.088Z" fill="#FF8922" stroke="white" stroke-width="2" stroke-linecap="round"/>
<rect x="152.685" y="149.902" width="42.3626" height="98.3905" fill="#FF8922" stroke="white" stroke-width="2"/>
<path d="M119.889 171.083L119.889 195.681L142.436 195.681L142.436 169.034C138.063 165.207 133.326 163.34 131.504 162.884C123.851 166.164 120.572 169.717 119.889 171.083Z" fill="#FF8922" stroke="white" stroke-width="2" stroke-linecap="round"/>
<path d="M119.889 212.763L119.889 237.361L142.436 237.361L142.436 210.713C138.063 206.887 133.326 205.019 131.504 204.564C123.851 207.844 120.572 211.397 119.889 212.763Z" fill="#FF8922" stroke="white" stroke-width="2" stroke-linecap="round"/>
<path d="M162.251 171.083L162.251 195.681L184.799 195.681L184.799 169.034C180.426 165.207 175.689 163.34 173.867 162.884C166.214 166.164 162.935 169.717 162.251 171.083Z" fill="#FF8922" stroke="white" stroke-width="2" stroke-linecap="round"/>
<path d="M162.251 212.763L162.251 237.361L184.799 237.361L184.799 210.713C180.426 206.887 175.689 205.019 173.867 204.564C166.214 207.844 162.935 211.397 162.251 212.763Z" fill="#FF8922" stroke="white" stroke-width="2" stroke-linecap="round"/>
<path d="M119.889 171.083L119.889 195.681L142.436 195.681L142.436 169.034C138.063 165.207 133.326 163.34 131.504 162.884C123.851 166.164 120.572 169.717 119.889 171.083Z" fill="#FF8922" stroke="white" stroke-width="2" stroke-linecap="round"/>
<path d="M119.889 212.763L119.889 237.361L142.436 237.361L142.436 210.713C138.063 206.887 133.326 205.019 131.504 204.564C123.851 207.844 120.572 211.397 119.889 212.763Z" fill="#FF8922" stroke="white" stroke-width="2" stroke-linecap="round"/>
<path d="M328.792 171.083L328.792 195.681L306.245 195.681L306.245 169.034C310.617 165.207 315.355 163.34 317.177 162.884C324.829 166.164 328.109 169.717 328.792 171.083Z" fill="#FF8922" stroke="white" stroke-width="2" stroke-linecap="round"/>
<path d="M328.791 212.763L328.791 237.361L306.244 237.361L306.244 210.713C310.616 206.887 315.354 205.019 317.176 204.564C324.828 207.844 328.108 211.397 328.791 212.763Z" fill="#FF8922" stroke="white" stroke-width="2" stroke-linecap="round"/>
<rect width="42.3626" height="98.3905" transform="matrix(-1 -1.74846e-07 -1.74846e-07 1 338.357 149.902)" fill="#FF8922" stroke="white" stroke-width="2"/>
<path d="M371.154 171.083L371.154 195.681L348.606 195.681L348.606 169.034C352.979 165.207 357.717 163.34 359.539 162.884C367.191 166.164 370.471 169.717 371.154 171.083Z" fill="#FF8922" stroke="white" stroke-width="2" stroke-linecap="round"/>
<path d="M371.154 212.763L371.154 237.361L348.606 237.361L348.606 210.713C352.979 206.887 357.717 205.019 359.539 204.564C367.191 207.844 370.471 211.397 371.154 212.763Z" fill="#FF8922" stroke="white" stroke-width="2" stroke-linecap="round"/>
<rect width="42.3626" height="98.3905" transform="matrix(-1 -1.74846e-07 -1.74846e-07 1 380.72 149.902)" fill="#FF8922" stroke="white" stroke-width="2"/>
<path d="M328.792 171.083L328.792 195.681L306.245 195.681L306.245 169.034C310.617 165.207 315.355 163.34 317.177 162.884C324.829 166.164 328.109 169.717 328.792 171.083Z" fill="#FF8922" stroke="white" stroke-width="2" stroke-linecap="round"/>
<path d="M328.791 212.763L328.791 237.361L306.244 237.361L306.244 210.713C310.616 206.887 315.354 205.019 317.176 204.564C324.828 207.844 328.108 211.397 328.791 212.763Z" fill="#FF8922" stroke="white" stroke-width="2" stroke-linecap="round"/>
<path d="M371.154 171.083L371.154 195.681L348.606 195.681L348.606 169.034C352.979 165.207 357.717 163.34 359.539 162.884C367.191 166.164 370.471 169.717 371.154 171.083Z" fill="#FF8922" stroke="white" stroke-width="2" stroke-linecap="round"/>
<path d="M371.154 212.763L371.154 237.361L348.606 237.361L348.606 210.713C352.979 206.887 357.717 205.019 359.539 204.564C367.191 207.844 370.471 211.397 371.154 212.763Z" fill="#FF8922" stroke="white" stroke-width="2" stroke-linecap="round"/>
<path d="M411.5 77C416.194 77.0001 420 81.9641 420 88.0869C420 88.5032 419.981 88.914 419.946 89.3184H403.054C403.019 88.914 403 88.5032 403 88.0869C403 81.964 406.806 77 411.5 77Z" fill="#FF8922"/>
<path d="M411.5 77C416.194 77 420 81.8352 420 87.7998C420 88.2055 419.981 88.6059 419.946 89H403.054C403.019 88.6059 403 88.2055 403 87.7998C403 81.8353 406.806 77.0001 411.5 77Z" fill="#FF8922"/>
<path d="M456.881 35C462.597 35.0003 467.23 41.0443 467.23 48.5C467.23 49.0071 467.207 49.5074 467.165 50H446.595C446.554 49.5074 446.53 49.0071 446.53 48.5C446.53 41.0442 451.164 35 456.881 35Z" fill="#FF8922"/>
<path d="M34.1705 35C39.8866 35.0003 44.5201 41.0443 44.5201 48.5C44.5201 49.0071 44.4965 49.5074 44.4547 50H23.8854C23.8436 49.5074 23.8199 49.0071 23.8199 48.5C23.8199 41.0442 28.4543 35 34.1705 35Z" fill="#FF8922"/>
<path d="M79.5 76C84.1945 76 87.9999 80.8352 88 86.7998C88 87.2055 87.9806 87.6059 87.9463 88H71.0537C71.0194 87.6059 71 87.2055 71 86.7998C71.0001 80.8353 74.8056 76.0001 79.5 76Z" fill="#FF8922"/>
<rect x="199" y="111" width="93" height="14" fill="#FF8922"/>
<rect x="198" y="111" width="95" height="14" fill="#FF8922"/>
</svg>
