<svg width="25" height="40" viewBox="0 0 25 40" fill="none" xmlns="http://www.w3.org/2000/svg">
<path d="M20.9187 16.3428C15.3594 7.98483 14.5965 6.83779 12.5861 2C11.605 5.10021 6.61178 12.321 3.364 17.7365C-0.678034 27.0372 -0.678065 36.848 12.5861 38.6924C26.3997 37.5936 25.5522 23.3091 21.0627 16.5592L20.9187 16.3428Z" fill="#1B7AAD" stroke="white"/>
<circle cx="19.0911" cy="20.2481" r="1.03048" fill="white" stroke="white"/>
<path d="M19.6209 23.5764C19.4607 22.8074 20.3273 22.543 20.5628 22.6738C22.8781 23.9601 23.132 27.697 22.5642 29.3059C22.3287 29.9731 21.5438 30.287 20.9944 29.8161C20.445 29.3452 20.7197 28.0894 20.7197 27.1868C20.7197 26.2842 19.8171 24.5183 19.6209 23.5764Z" fill="white" stroke="white"/>
</svg>
